<svg xmlns="http://www.w3.org/2000/svg" viewBox="0 0 1350.27 636.67"><defs><style>.cls-1{fill:#852e2c;}.cls-2{fill:#2e3192;}.cls-2,.cls-3,.cls-5{stroke:#000;stroke-miterlimit:10;stroke-width:5px;}.cls-3,.cls-4,.cls-6{fill:#fff;}.cls-5{fill:none;}.cls-6{font-size:55px;font-family:Oswald-Medium, Oswald;font-weight:500;}.cls-7{letter-spacing:-0.01em;}.cls-8{letter-spacing:-0.01em;}.cls-9{fill:#bc955c;}.cls-10{fill:#050542;}.cls-11{fill:#d80000;}</style></defs><g id="couches"><path id="Vector_217" data-name="Vector 217" d="M129.87,309.2c.3,15,.4,30.1.4,45.1,0,11.8-.2,23.5-.5,35.3-.4,16.6-1.2,33.1-2,49.7-.9,17.8-2,35.7-2.2,53.5-.2,13.8.2,27.6-.2,41.4,0,1.4-.1,2.8-.2,4.1a3,3,0,0,0,3,3,3.08,3.08,0,0,0,3-3c.6-13.2.1-26.4.2-39.6.1-17.6,1.1-35.2,2-52.9.8-16.8,1.7-33.5,2.2-50.3.4-12.3.5-24.5.6-36.8.1-14.3,0-28.5-.2-42.8,0-2.3-.1-4.5-.1-6.8C135.77,305.3,129.77,305.3,129.87,309.2Z"/><path id="Vector_217-2" data-name="Vector 217" d="M1246.77,320.9c.3,15,.4,30.1.4,45.1,0,11.8-.2,23.5-.5,35.3-.4,16.6-1.2,33.1-2,49.7-.9,17.8-2,35.7-2.2,53.5-.2,13.8.2,27.6-.2,41.4,0,1.4-.1,2.8-.2,4.1a3,3,0,0,0,3,3,3.08,3.08,0,0,0,3-3c.6-13.2.1-26.4.2-39.6.1-17.6,1.1-35.2,2-52.9.8-16.8,1.7-33.5,2.2-50.3.4-12.3.5-24.5.6-36.8.1-14.3,0-28.5-.2-42.8,0-2.3-.1-4.5-.1-6.8C1252.67,317,1246.67,317,1246.77,320.9Z"/><path id="Vector_241" data-name="Vector 241" class="cls-1" d="M1231.47,424.1l-9.1,1s-1.2-18-60.2-48l3.4-43.9,2.7-44.9,54.1,42.7,9.1,7.1Z"/><path id="Vector_242" data-name="Vector 242" class="cls-1" d="M182.17,282.1l-63,46.9L122,435.4s11.6-30.1,47.9-47.7,15.9-11.2,15.9-11.2Z"/><path id="Vector_245" data-name="Vector 245" class="cls-1" d="M1163.07,378.7c-1.9-10.6.2-20.7,2.2-41.1,1.2-12.4-.4-23.6,1.1-35.9,1.4-11.9-3.2-26.9-3.7-55.5-.8-43-2-49.5-6.1-58.2-3.8-8.1-9.9-21.3-26.1-33.7-20.2-15.3-42.7-15.7-82.8-23.9-11.4-2.4-44.3-6.1-81.5-8.4-17.4-1.1-30.8-1.2-66.6-.5-110.2,2-139.9,8.7-164.4,15-16.7,4.3-29,7-43.5,17.9-11.9,9-14.9,12.3-18.1,18.4l-6.4,210.3,21.3-6,9.3-1.6s139-15.1,207.2-11.8h0S1132,357.3,1163.07,378.7Z"/><path id="Vector_246" data-name="Vector 246" d="M1166,377.9c-1.5-8.7-.2-17.7.8-26.4.7-6.6,1.6-13.1,1.8-19.7.3-6.9-.1-13.7.1-20.6.1-4.9.9-9.8.9-14.7a99.88,99.88,0,0,0-.8-10.9c-1.1-10.3-2.4-20.6-2.9-31-.9-18.5.2-37.4-2.8-55.7-1.8-10.8-7.6-21.5-14.1-30.2a81,81,0,0,0-24.2-21.7,90.43,90.43,0,0,0-23.6-9.2c-9.9-2.5-20.1-4.2-30.1-6s-19.7-4-29.6-5.5c-22.3-3.4-44.9-5.2-67.4-6.8-17-1.2-34-1.6-51-1.4-43.3.4-86.8,1.2-130,5.4a380.3,380.3,0,0,0-57.1,9.6c-9.8,2.5-19.7,4.8-29,8.8a99.84,99.84,0,0,0-28.4,19.3,37.14,37.14,0,0,0-6.6,8.2,8.46,8.46,0,0,0-1.4,3.6c-.1,1.6-.1,3.3-.2,4.9l-1.8,60.9c-.9,28.6-1.7,57.1-2.6,85.7-.6,18.6-1.1,37.2-1.7,55.8,0,.9-.1,1.8-.1,2.8A3,3,0,0,0,668,386l20-5.7c2.5-.7,5.2-1,7.8-1.5a20,20,0,0,0,2.4-.4c.8-.2-.5,0-.4,0,.3,0,.5-.1.8-.1,11.5-1.2,22.9-2.3,34.4-3.4,22.1-2,44.1-3.9,66.2-5.4,24.3-1.7,48.8-3,73.2-3.3,10.5-.2,21.1-.1,31.6.4,10.1.5,20.2,1.2,30.3,1.5h1c3.9.2,3.8-5.8,0-6-8.8-.4-17.7-.9-26.5-1.3-1.3-.1-2.5-.1-3.8-.2v6c7.6-.2,15.1-.3,22.7-.5,18.5-.3,37.1-.5,55.6-.4q34.8,0,69.8,1.2c21.8.8,43.6,1.8,65.2,4.2,8.3.9,16.5,2,24.7,3.7,3.2.7,6.3,1.4,9.4,2.4,1.3.4,2.7.8,4,1.3a6.89,6.89,0,0,1,.8.3c.7.3,0,0,.3.1.5.2,1.1.5,1.6.7a13.5,13.5,0,0,1,2.6,1.5c3.2,2.2,6.2-3,3-5.2-4.3-3-9.7-4.5-14.8-5.7a189.6,189.6,0,0,0-23.7-4.2c-21-2.8-42.1-4-63.3-4.8-23.6-1-47.2-1.4-70.8-1.5q-29.4-.15-58.8.3c-9.3.1-18.8,0-28.1.5h-.4c-3.9.1-3.8,5.8,0,6,8.8.4,17.6.9,26.4,1.3,1.3.1,2.6.1,3.9.2v-6c-18.2-.9-36.4-2-54.7-2-24.2.1-48.4,1.3-72.6,2.8q-34.35,2.25-68.6,5.3c-13.1,1.2-26.2,2.5-39.3,3.8-10.8,1.1-20.9,4.3-31.3,7.3-.8.2-1.6.5-2.4.7l3.8,2.9c.4-13.1.8-26.2,1.2-39.4.8-27.5,1.7-55,2.5-82.5.7-24,1.5-48.1,2.2-72.2.2-5.2.6-10.5.5-15.8v-.5c-.1-.7-.9,1.4,0,.5s1.5-2.5,2.3-3.6a43.56,43.56,0,0,1,3.5-4,91,91,0,0,1,27.6-18.7c9-3.8,18.6-6,28.1-8.4,3.5-.9,6.9-1.7,10.4-2.5,8.9-2,17.9-3.5,27-4.8,35.9-4.8,72.6-5.9,108.8-6.8,21.5-.5,43-1.1,64.5-.6,21,.5,42,2.4,62.8,4.5,9.5,1,18.9,2,28.3,3.4,9.8,1.5,19.5,3.7,29.2,5.4,17.8,3.2,36.8,5.4,52.7,14.6a74.57,74.57,0,0,1,23.6,21.8,85.4,85.4,0,0,1,6.6,11.3c.7,1.4,1.3,2.8,2,4.2a4.18,4.18,0,0,1,.4,1l.3.6c.2.6-.2-.5.1.2,3.9,9.9,3.8,20.6,4.3,31.2.5,12.3.4,24.6,1.2,37,.6,9.7,2,19.3,2.9,29,.9,9.3-.5,18.3-.5,27.6,0,6.9.3,13.8-.3,20.7-.5,6.2-1.3,12.4-2,18.6-.9,8.1-1.6,16.2-.2,24.3A3,3,0,1,0,1166,377.9Z"/><path id="Vector_247" data-name="Vector 247" class="cls-1" d="M674.17,398.2c-4.9-12.9-5.4-18-19.6-21-6.2-1.3-20-3-26.3-3.9-17.7-2.5-35.7-4.3-53.7-5.3-24.9-1.5-49.8-1.5-74.8-1.6-83.3-.3-166.7-.6-249.9,1.2-15,.3-30.7.4-44.9,3.6-12.1,2.8-17.2,6.5-27.2,12-31.2,17.1-57.1,38.1-58.5,65.5-.6,11.6,3.7,24.5,17.6,31.2,10.9,5.2,25,5.4,38.3,5.5q236.1.75,472.2,1.4c8,0,9.7-.1,16.1-3.3,7.7-4,8.1-7.5,9.2-14.1a221.56,221.56,0,0,0,1.2-71.3"/><path id="Vector_248" data-name="Vector 248" d="M677.07,397.4c-2.1-5.7-3.8-12.3-8.2-16.8-4.6-4.7-11.4-6-17.6-7-18.6-3.1-37.4-5.3-56.2-7-45.8-4.1-91.9-3.2-137.9-3.3-46.3-.1-92.5-.2-138.8.3q-34.8.3-69.6,1.1c-20,.4-41.4.1-59.8,9-8.1,3.9-16,8.6-23.7,13.3a178.31,178.31,0,0,0-22.6,16.1c-12,10.2-22.9,23.3-25.7,39.2-2.8,15.3,2.2,31.4,16.4,39.3,8.5,4.7,18.4,6.1,28,6.6,11,.6,22.1.3,33.1.4q69.6.15,139.1.4,69.75.15,139.7.4,69.6.15,139.1.4c11.6,0,23.3.1,34.9.1,3.7,0,7.5.1,11.1-.9a35.4,35.4,0,0,0,10.3-5.1c6.4-4.7,6.8-12.7,7.9-20a225.3,225.3,0,0,0,2.6-33.8,239.82,239.82,0,0,0-2.4-32.7c-.5-3.8-6.3-2.2-5.8,1.6a220.57,220.57,0,0,1-.6,65.9c-.5,3.4-.8,7.4-2.2,10.6s-4.8,4.8-7.8,6.2c-7.3,3.5-16.2,2.2-24.1,2.2q-67-.15-134.1-.4t-134.1-.4Q301,483,234,482.7c-22.2-.1-44.4.2-66.6-.3-16.4-.4-37.3-2.7-43.4-20.8-4.8-14.1.8-29.3,9.6-40.5,10.7-13.7,25.6-23.7,40.5-32.2,7.1-4.1,14.3-8.7,22-11.7,9.3-3.6,19.3-5,29.2-5.7,21.6-1.5,43.5-1.3,65.2-1.6q66.9-.9,133.8-.7c44.5.1,89.1-.5,133.5,1.1,21.9.8,43.7,2.5,65.4,5.4,7.7,1,15.5,2,23.2,3.2,5.8.9,13.2,1.4,17.8,5.4,4.1,3.5,5.5,9.9,7.3,14.8C672.67,402.5,678.47,401,677.07,397.4Z"/><path id="Vector_249" data-name="Vector 249" class="cls-1" d="M1221.87,419.9c-6.9-10.4-20.7-17.2-31.6-24.7-20.5-13-30.3-21.7-57.7-25.4-28.5-3.9-72.3-5.4-101.4-5.5q-81.15-.3-162.3-.7c-28-.1-56-.2-83.8,1.6-18.7,1.2-68.7,4.5-85.9,9.8s-18.5,11.2-18.5,13.5c0,11.7,1,33.9.4,45.6-.5,10.3,0,21.2-.4,31.4-.1,3.4-1.1,6.4,1.8,9.1,2.3,2.2,6.2,3.4,9.9,4.5,35.1,9.8,80,5.1,117.9,6.5,37,1.3,74.1,1.3,111.2,1.2q132.6-.15,265.2-.9c8.2,0,16.6-.1,24.2-2.1,12.6-3.4,12.3-3.4,16.3-12.3s3.2-19.9,3.3-29.2C1230.57,433.2,1227.37,428.2,1221.87,419.9Z"/><path id="Vector_250" data-name="Vector 250" d="M1224.47,418.3c-5.4-8-13.5-13.5-21.5-18.6s-15.9-10.3-23.9-15.4a120.08,120.08,0,0,0-20.9-11.2c-8.7-3.5-17.8-5.3-27-6.5-39.8-5.3-80.2-5.2-120.2-5.4q-75.15-.3-150.2-.7c-24.9-.1-49.8,0-74.6,1.6-14.6,1-29.3,2-43.9,3.4-14.2,1.3-29,2.4-42.7,6.3-6.7,1.9-14.7,4.7-19.3,10.3-3.3,4-2.6,8.7-2.5,13.7.2,9.1.5,18.2.5,27.4,0,10.1-.4,20.3-.4,30.4,0,5.4-.5,10.8-.4,16.1.1,5,3.2,8.2,7.6,10.2,9,4,19.6,5.4,29.3,6.6,21.7,2.8,43.7,2.2,65.5,2,23.2-.2,46.4.8,69.7,1.1,49.9.7,99.9.2,149.8.1q75.3-.15,150.7-.5c12.6-.1,25.2-.1,37.7-.2,10.6-.1,20.9-.9,31-4.2a15.43,15.43,0,0,0,6.7-3.8c1.9-2,3-4.7,4.1-7.2,4.3-9.5,4-19.8,4-30a33.31,33.31,0,0,0-2.1-12.9,70.08,70.08,0,0,0-7-12.6c-2.1-3.2-7.3-.2-5.2,3,2.6,3.9,5.4,7.8,6.9,12.3,1.5,4.2,1.3,8.5,1.4,13,.1,9.6-.3,18.6-4.7,27.3-1,1.9-1.8,3.2-3.7,4.1-3.2,1.6-7,2.3-10.5,3.1-11.2,2.6-23.2,1.7-34.6,1.8l-145.2.6c-48.3.2-96.7.4-145.1.2-24.2-.1-48.3-.3-72.5-1.2-21-.7-42,.2-63-.1-10.4-.2-20.9-.6-31.3-1.8-5-.6-10-1.3-14.9-2.3-4.7-1-9.6-1.9-14-3.8-1.9-.8-4.2-1.9-4.6-4s.2-4.9.3-7.1c.2-5.6.1-11.2.1-16.8,0-9.3.5-18.6.4-27.9-.1-8.7-.4-17.4-.5-26.2,0-1.4-.1-2.9,0-4.3h0c.1-.3.1-.6.2-.9s-.1.1.2-.5a7.76,7.76,0,0,0,.4-.7,10.44,10.44,0,0,1,2.4-2.3c5.6-4.2,12.9-6.2,19.7-7.6s13.5-2.3,20.3-3.1a951.15,951.15,0,0,1,105.4-6.5c48.3-.4,96.7.2,145.1.5,41.6.2,83.2-.2,124.6,2.7,17.8,1.3,36.6,2.2,53.5,8.8a117.82,117.82,0,0,1,20.1,10.8c7.7,4.9,15.3,10,23.1,14.9,7.5,4.7,15.4,9.7,20.5,17.1C1221.47,424.6,1226.67,421.6,1224.47,418.3Z"/><path id="Vector_251" data-name="Vector 251" class="cls-1" d="M679.77,419.7q-274.2,0-548.4.1s-14.3,16.8-12.3,36.6,2,72.7,2,72.7v27c1.5.9,2,7,5,9s7.8,2.4,9.9,2.3l1086.1-.3,12.6-3-3.6-139c-182.8,0-373.7-5.3-556.4-5.3"/><path id="Vector_252" data-name="Vector 252" d="M679.77,416.7q-198.45,0-396.8.1H182.67c-16.3,0-32.7-.3-49,0-3.5.1-4.1.5-6.1,3.1a62.14,62.14,0,0,0-6,9.9c-8.8,18.2-4.4,38.8-3.9,58.2.3,13.7.5,27.3.5,41v16.8c0,3-.2,6,0,8.9.2,2.7,1.4,4.8,2.5,7.3,4.3,10.4,17.3,8.3,26.6,8.3h49.1q99.3,0,198.5-.1,198.45,0,397-.1t397-.1h24.5a78.29,78.29,0,0,0,9.7-.1c4.2-.5,8.5-2,12.6-3a3.12,3.12,0,0,0,2.2-2.9q-1.5-60.9-3.1-121.7c-.2-5.8-.3-11.6-.5-17.3a3,3,0,0,0-3-3c-72,0-144.1-.8-216.1-1.8-72.9-1-145.9-2.2-218.8-2.9-40.5-.4-81-.7-121.5-.6-3.9,0-3.9,6,0,6,72,0,144.1.8,216.1,1.8,72.9,1,145.9,2.2,218.8,2.9q60.75.6,121.5.6l-3-3q1.5,60.9,3.1,121.7c.2,5.8.3,11.6.5,17.3.7-1,1.5-1.9,2.2-2.9a102.09,102.09,0,0,1-25.2,2.9H845.37q-194.1,0-388,.1H145.17c-6.1,0-16.1,1.9-19-5-.6-1.4-.8-3.2-1.8-4.4s-.5,2.1,0,.2c.6-2.7,0-6.1,0-8.8,0-27.8.3-55.7-1.5-83.4-.8-11.2-.5-21.1,4.7-31.4,1.4-2.7,3-6.8,5.4-8.7,1.4-1.2-.1-.4,2-.1,4.6.6,9.8,0,14.5,0h95.9q194,0,387.9-.1h46.8C683.67,422.7,683.67,416.7,679.77,416.7Z"/><path id="Vector_253" data-name="Vector 253" class="cls-1" d="M1168.27,289.8c13.4-8,36.5-7.6,52.9-7.8,13.2-.1,27.4-2.6,39.8,1.2,8,2.4,15.2,6.3,22.3,10.2,17.9,9.8,35.8,19.5,53.7,29.3a6.89,6.89,0,0,1,2.6,2.1c1.6,3.1-3.7,5.3-7.7,5.7a861.63,861.63,0,0,1-97.8,3.8,22.18,22.18,0,0,1-7.3-.9,21.94,21.94,0,0,1-5.4-3C1205.57,319.2,1182.37,302.9,1168.27,289.8Z"/><path id="Vector_254" data-name="Vector 254" d="M1169.87,292.4a39.39,39.39,0,0,1,5.9-2.8,69.46,69.46,0,0,1,6.9-2,98.77,98.77,0,0,1,15.3-2.1c10.8-.7,21.6-.3,32.3-.9,6.2-.3,12.4-.8,18.6-.5a51.94,51.94,0,0,1,17.4,4,156.75,156.75,0,0,1,16.4,8.2c6,3.3,11.9,6.5,17.9,9.8s11.9,6.5,17.9,9.8,12,6.2,17.7,9.7a9.68,9.68,0,0,1,.9.7.35.35,0,0,0-.1-.2c.1.3.1.3,0,.1s-.1-.8-.1-.3c0-.1.1-.2.1-.3,0,.1-.1.1-.1.2.1-.1.1-.2.2-.2l-.4.4c.3-.3,0,0-.1,0-.4.2-.7.4-1.1.6a11.5,11.5,0,0,1-2.6.8c-.3.1-.5.1-.8.2.4-.1-.1,0-.2,0l-2.9.3c-6.7.6-13.5,1.2-20.2,1.6q-20.25,1.35-40.5,1.8c-6.8.2-13.7.2-20.5.2-3.4,0-6.8,0-10.1-.1-3.1,0-6.3.2-9.3-.6-2.5-.7-4.7-2.4-6.8-3.9s-4.2-2.9-6.2-4.4c-4.6-3.2-9.1-6.5-13.7-9.8-8.9-6.5-17.7-13.1-26.1-20.3-1.8-1.5-3.6-3.1-5.3-4.7-2.8-2.6-7.1,1.6-4.2,4.2a322.91,322.91,0,0,0,26.5,21.5c9,6.7,18.2,13.2,27.4,19.7a20.56,20.56,0,0,0,8.8,3.9,89.44,89.44,0,0,0,10.4.5q10.65.15,21.3,0,21-.3,42-1.5c7.1-.4,14.1-1,21.2-1.6,3.4-.3,6.8-.4,10.1-1a13.53,13.53,0,0,0,7.2-3.2,5.53,5.53,0,0,0,1.1-7.1,9,9,0,0,0-3.5-2.9c-1.6-.9-3.2-1.8-4.8-2.6-6.3-3.4-12.5-6.8-18.8-10.2-12.3-6.7-24.5-13.6-36.9-20.1a83.18,83.18,0,0,0-18-7.4c-6.3-1.6-12.9-1.8-19.4-1.7s-13,.8-19.5.9c-5.2.1-10.3,0-15.5.2-10.8.3-22.1,1-32.2,4.9a51.06,51.06,0,0,0-6.7,3.1C1163.47,289.2,1166.47,294.4,1169.87,292.4Z"/><path id="Vector_255" data-name="Vector 255" class="cls-1" d="M1230.17,334.1c-.2,31.2,2.5,68.8,1,100,0,0,1.5,112.6,1,122.5s6.4,10.5,6.4,10.5,87.9.6,95.6-.3,10-5.1,11.4-7.9,1.6-20.5,1.6-20.5-1.2-194.3-.8-201a16.31,16.31,0,0,0-4.2-11.4s-3.9,3.9-11.9,5.2C1315.37,333.6,1230.07,335.7,1230.17,334.1Z"/><path id="Vector_256" data-name="Vector 256" d="M1227.17,334.1c-.1,21,.9,42,1.3,63,.2,10.4.3,20.8,0,31.1-.1,2.7-.2,5.4-.2,8.1l.3,21.3c.1,11.5.3,22.9.4,34.4.1,11.8.2,23.7.3,35.5.1,8.3.1,16.5.1,24.8,0,3.4-.5,7,.6,10.2,1.2,3.8,4.6,7.2,8.8,7.4,5.8.3,11.6.1,17.4.1,11.5.1,23,.1,34.5.1,10.9,0,21.7,0,32.6-.1,3.1,0,6.3-.1,9.4-.2,5.9-.3,11.4-2.5,14.6-7.6a15.94,15.94,0,0,0,2.1-6.7c.4-3,.5-6,.7-9,.1-2.8.2-5.6.2-8.3,0-3.4,0-6.7-.1-10.1,0-7.5-.1-15-.1-22.5-.1-10.3-.1-20.5-.2-30.8-.1-11.7-.1-23.5-.2-35.2s-.1-23.6-.2-35.4c0-10.5-.1-20.9-.1-31.4V349.3c0-3.9-.1-7.8.1-11.6a19,19,0,0,0-5.1-13.9,3,3,0,0,0-4.2,0l-.2.2c-.1.1-.8.6-.3.3s-.1.1-.2.2-.3.2-.5.3a6.38,6.38,0,0,1-1.4.8,24.75,24.75,0,0,1-8.2,2.7c-.2,0-.4.1-.6.1-.8.1.8-.1-.1,0-.5.1-1.1.1-1.7.2-1.4.1-2.7.3-4.1.4-8,.7-16,1-24,1.4-9.8.4-19.5.7-29.3,1-8.6.2-17.2.4-25.8.4-2.9,0-5.8,0-8.7-.1-1,0-1.9-.1-2.9-.1-.3,0-.7-.1-1-.1-.6,0,.7.2.4.1h-.3l-.2-.1s.7.3.6.3a3.08,3.08,0,0,1,1.4,2.5,3.08,3.08,0,0,0-3-3,2.75,2.75,0,0,0-2.9,2.8c.2,3,2.9,3.2,5.3,3.4s4.8.2,7.3.2q12.45,0,24.9-.3c10.1-.2,20.1-.5,30.2-.9,8.6-.3,17.3-.7,25.9-1.4,7.9-.6,16.2-1.2,22.6-6.4a2.7,2.7,0,0,0,.8-.7H1340c.1.1.2.3.4.4s.3.3.4.5c-.5-.6.1.1.2.4.4.6.7,1.2,1.1,1.8a11.2,11.2,0,0,1,.9,2.2,17.16,17.16,0,0,1,.4,4.6v22.8c0,9.3,0,18.7.1,28,0,11.2.1,22.4.1,33.6,0,11.8.1,23.6.2,35.4.1,11.1.1,22.1.2,33.2.1,9,.1,17.9.2,26.9,0,5.6.1,11.2.1,16.9,0,3.6,0,7.1-.2,10.6-.1,3-.3,6.1-.6,9.1,0,.3-.1.6-.1.9-.1.9.1-.3,0,.2s-.2,1.1-.3,1.6c0,.2-.1.3-.1.5-.2.7.3-.6.1-.1s-.5,1-.8,1.5c-.2.2-.3.5-.5.7a1.38,1.38,0,0,0-.3.4c.4-.5.1-.2,0-.1a12.09,12.09,0,0,1-1.6,1.6c.4-.4-.5.3-.6.4a6.72,6.72,0,0,1-1.2.6,20.76,20.76,0,0,1-2.6.8c-1.1.2-2.2.3-3.4.4-8.2.4-16.5.3-24.7.3h-35.7c-9.3,0-18.6-.1-27.8-.1a43.39,43.39,0,0,0-5.1,0c-.3,0,1.1.3.3,0-.2-.1-.5-.1-.7-.2-.6-.2,0,0,.1,0l-.6-.3c-.2-.1-.4-.3-.6-.4s.4.4.2.2-.2-.2-.3-.2l-.6-.6c-.1-.1-.3-.4.1.1a1,1,0,0,0-.4-.5,5.9,5.9,0,0,1-.4-.8c.3.6-.1-.3-.2-.5a10.11,10.11,0,0,1-.4-2.3c-.1-2.4.1-4.9.1-7.4v-11c0-10.7-.1-21.4-.2-32.1-.1-12-.2-24-.4-36-.1-9.5-.2-18.9-.3-28.4,0-2.6-.1-5.2-.1-7.7,0-3.2.2-6.4.2-9.6.5-21-.3-41.9-.9-62.9-.3-9.8-.5-19.6-.4-29.3C1233.17,330.2,1227.17,330.2,1227.17,334.1Z"/><path id="Vector_257" data-name="Vector 257" class="cls-1" d="M54.77,565.9l-.6,56.4s-8.1,5.7-1,6.2,26.4,1.3,28.6-.6-3-6.7-3-6.7l-.9-54.3Z"/><path id="Vector_258" data-name="Vector 258" d="M51.77,565.9c-.1,6.3-.1,12.7-.2,19-.1,10.1-.2,20.3-.3,30.4,0,2.3,0,4.6-.1,7,.5-.9,1-1.7,1.5-2.6-2.4,1.6-5.6,4.2-5.4,7.4.2,5.2,7.6,4.5,11.3,4.7,4.7.2,9.5.4,14.2.2a56.33,56.33,0,0,0,5.8-.3,12.4,12.4,0,0,0,4.6-1.1c4.9-2.9.6-8.9-2.2-11.5l.9,2.1-.3-18.3c-.2-9.8-.3-19.5-.5-29.3,0-2.2-.1-4.5-.1-6.7a3.08,3.08,0,0,0-3-3c-6.7-.3-13.4-.6-20.1-.8-1,0-1.9-.1-2.9-.1a2.87,2.87,0,0,0-3.2,2.9,3.08,3.08,0,0,0,3,3c6.7.3,13.4.6,20.1.8,1,0,1.9.1,2.9.1l-3-3c.2,9.7.3,19.4.5,29.1.1,6.2.2,12.5.3,18.7,0,1.8.1,3.6.1,5.3v1c.1,1.5.9,2.2,1.8,3.1.2.3.5.5.7.8.1.1.5.7.1.2.1.1.2.3.3.4.2.3.4.7.6,1-.4-.7,0-.1,0,.1-.1.7,0-.6,0,0a1.43,1.43,0,0,1,.5-1.1c-.4.5.5-.4.3-.2-.5.4.7-.1.1,0s-1.2.3-1.7.4c.8-.2-.1,0-.4,0s-.8.1-1.1.1a26.2,26.2,0,0,1-2.8.1c-2.1.1-4.2.1-6.2,0-4.2,0-8.3-.2-12.5-.4-.7,0-1.4-.1-2.1-.1-.1,0-.8-.1-.4,0s-.5-.1-.4-.1c-.7-.1.4.3-.1,0l.3.3c-.2-.2-.2-.1.2.3.1.1.3,1.3.3.9,0,0-.1.9,0,.4-.2.9,0,.2.1-.2.3-.5-.5.5,0,0l.3-.3.8-.8c.2-.2.5-.4.8-.7.1-.1.2-.2.3-.2.4-.4-.6.4-.2.2a4.1,4.1,0,0,0,1.8-2.1,6.15,6.15,0,0,0,.1-1.4v-4.5c.1-5.9.1-11.9.2-17.8.1-11,.2-21.9.4-32.9v-.6C57.77,562,51.77,562,51.77,565.9Z"/><path id="Vector_259" data-name="Vector 259" class="cls-1" d="M1275.37,567.3l-.6,55.5s-8.2,5.6-1,6.1,26.6,1.2,28.8-.6-3.1-6.6-3.1-6.6l-.9-54.2Z"/><path id="Vector_260" data-name="Vector 260" d="M1272.37,567.3c-.1,6.3-.1,12.5-.2,18.8-.1,9.9-.2,19.9-.3,29.8,0,2.3-.1,4.6-.1,6.9.5-.9,1-1.7,1.5-2.6-2.4,1.6-5.6,4.1-5.5,7.3.2,5.3,7.9,4.5,11.6,4.7,4.7.2,9.4.3,14,.2a58.28,58.28,0,0,0,5.9-.3,12.4,12.4,0,0,0,4.6-1.1c5-2.8.6-8.9-2.3-11.4l.9,2.1-.3-18.3c-.2-9.8-.3-19.5-.5-29.2,0-2.2-.1-4.5-.1-6.7a3,3,0,0,0-3-3c-6.8-.1-13.5-.1-20.3-.2h-2.9c-3.9,0-3.9,6,0,6,6.8.1,13.5.1,20.3.2h2.9l-3-3c.2,9.6.3,19.2.5,28.8.1,6.2.2,12.5.3,18.8,0,1.8.1,3.6.1,5.4v1.1a4.68,4.68,0,0,0,1.6,3,5.72,5.72,0,0,1,.7.8c.1.1.2.3.4.4.5.6-.3-.5.1.2a6.07,6.07,0,0,0,.7,1c.1.1.1.3.2.4-.2-.4-.2-.4-.1-.1s.1.3,0-.2c0,.3-.1.2.1-.3,0-.1.7-1,.3-.6.5-.5.6-.5.4-.3-.5.3.4-.3.3-.1s-1.3.3-1.5.4c-.8.2.6,0-.3,0-.4,0-.7.1-1.1.1-.9.1-1.8.1-2.7.2-2,.1-4.1.1-6.1.1-4.2,0-8.4-.2-12.6-.4-.8,0-1.5-.1-2.2-.1a3.75,3.75,0,0,1-1.1-.1c.5.1-.1,0-.2-.1-.7-.1.1.2-.2,0,.6.4.4.3.2.2a1.82,1.82,0,0,1,.6,1.4c0-.5-.1.7,0,.3s-.4.6-.1.2c.1-.2.7-.9.1-.3.3-.3.5-.6.8-.9a17.41,17.41,0,0,1,1.4-1.2c-.8.7.1,0,.3-.2a3.56,3.56,0,0,0,1.5-3v-4.2c.1-5.8.1-11.7.2-17.5.1-10.9.2-21.9.4-32.8v-.6C1278.37,563.4,1272.37,563.4,1272.37,567.3Z"/><path id="Vector_261" data-name="Vector 261" class="cls-1" d="M671.67,181l-4.6,202.1s-12.9-10-69.9-13-200.6-4-200.6-4-166,.4-180.7,3.2-30.1,9.3-30.1,9.3l-3.6-94.5c-7.8,3-11.6,7.6-16,10a143.42,143.42,0,0,0-13.5,9.7,53.5,53.5,0,0,1-6.7,4.7c-9.3,5.8-18.6,11.6-27.8,17.5a17.21,17.21,0,0,1-3.8,2,21.88,21.88,0,0,1-6.8.8H12.27c-3.4,0-7.4-.2-9.3-2.6,7.9-6.5,17.5-11.3,27-16,12.1-6,18.5-10.7,30.7-16.7,4.9-2.4,10.2-6.1,15.7-7.4,5.8-1.4,11.9-1.4,17.9-1.4,25.1,0,63.2-1.7,88.2-1.6.9,31.6,1.9,63.3,2.8,94.9-.3-6.6-3.3-80.7,0-135.4,0,0-.5-24.8,12-53.1,6.9-15.6,11.6-24.7,29.9-35,13.7-7.7,30.2-12.5,46.8-16.8s33.2-8.1,50.2-11.1c97.4-17,200.9-5.5,296.4,16,13.3,3,26.9,6.4,37.2,12.8C668.67,162.2,672,170.8,671.67,181Z"/><path id="Vector_262" data-name="Vector 262" d="M668.67,181c-.5,22.7-1,45.5-1.6,68.2-.8,36.3-1.7,72.5-2.5,108.8-.2,8.4-.4,16.7-.6,25.1,1.5-.9,3-1.7,4.5-2.6a26.22,26.22,0,0,0-5.8-2.9,110.6,110.6,0,0,0-19.5-5.4c-22.8-4.5-46.2-5.3-69.5-6.1-44.1-1.5-88.2-2.1-132.4-2.6-18.1-.2-36.1-.5-54.2-.4-33.6.1-67.2.3-100.9.8-16.8.2-33.7.5-50.5,1.1-5.2.2-10.5.4-15.7.8-8.5.7-16.8,3.2-24.8,6q-5.7,1.95-11.1,4.2c1.5.9,3,1.7,4.5,2.6-1.1-27.6-2.1-55.2-3.2-82.8-.1-3.9-.3-7.9-.5-11.8-.1-1.8-1.9-3.7-3.8-2.9-5,2-9,4.9-13.3,8-2.8,2.1-5.9,3.9-8.9,5.9-4.7,3.3-8.9,7.1-13.7,10.1l-17.7,11.1c-5.5,3.5-11.8,9.1-18.5,9.3s-13.6,0-20.4,0H14c-2.9,0-7,.5-9.2-1.7V328c10.3-8.4,22.8-13.3,34.4-19.6,10.9-6,21.6-12.8,33-18,6.2-2.9,13.3-2.9,20-2.9,5.3,0,10.6,0,16-.1,11.8-.2,23.6-.5,35.5-.8,12.9-.3,25.7-.7,38.6-.7l-3-3c.9,31.6,1.9,63.3,2.8,94.9h6c-1.4-32.3-1.9-64.8-1.4-97.1.3-16.2.3-32.7,2-48.8a147.82,147.82,0,0,1,7.2-31.6c3.3-9.5,7.4-19.5,13.4-27.6,6.2-8.4,15.5-14.1,24.8-18.7,12-5.9,25.1-9.5,38-12.9,26.8-7,53.9-12.7,81.5-15.9,54.2-6.3,109.2-4.5,163.3,2.1,27.1,3.3,54.1,7.9,80.9,13.4,12.9,2.7,26,5.2,38.7,8.9,10.6,3.1,23.7,7.7,29.4,18a26.15,26.15,0,0,1,2.8,13.4c-.1,3.9,5.9,3.9,6,0,.2-10.3-3.6-19.3-11.9-25.7-10-7.7-22.9-11.2-35-14.1-27.2-6.5-54.8-11.7-82.4-16-55.7-8.5-112.3-12.4-168.5-8.2a552.59,552.59,0,0,0-83.8,12.8c-13.7,3.2-27.5,6.5-40.8,10.8-12.1,3.9-24.2,8.8-34.6,16.3a58.51,58.51,0,0,0-18.1,20.8,152.82,152.82,0,0,0-12.8,33.3c-4,15.7-4.6,31.6-5.2,47.7-1.5,38.4-.9,77,.6,115.4,0,1.3.1,2.6.1,3.8.2,3.8,6.1,3.9,6,0-.9-31.6-1.9-63.3-2.8-94.9a3,3,0,0,0-3-3c-24,0-48,1-72,1.5-5.4.1-10.8.2-16.2.2-6.7,0-13.9-.1-20.4,1.9s-12.2,5.9-18.1,8.9c-5.4,2.8-10.7,6-16,9-13,7.4-27.1,12.9-38.9,22.4-1.3,1-1,3.2,0,4.2,4,4.1,10.2,3.5,15.4,3.5h84.8c6.7,0,12.8.5,18.7-3.1,6.5-4,13-8.2,19.5-12.2,5.7-3.6,11.5-7,16.7-11.2a106.72,106.72,0,0,1,12.2-8.6c5.1-3.1,9.3-7.2,15-9.5l-3.8-2.9c1.1,27.6,2.1,55.2,3.2,82.8.1,3.9.3,7.8.5,11.8.1,2.5,2.4,3.5,4.5,2.6-1.3.6,0,0,.4-.2l2.4-.9c2.9-1.1,5.9-2.2,8.9-3.2a118.58,118.58,0,0,1,18.4-4.8c.1,0-.6.1.2,0,.3,0,.7-.1,1-.1a24.58,24.58,0,0,1,2.8-.2c2.3-.2,4.7-.3,7.1-.4,15.3-.7,30.6-.9,45.9-1.2,35.2-.6,70.4-.8,105.6-1,16-.1,32.1,0,48.1.2,43.2.4,86.4,1,129.6,2.2,22.1.6,44.4,1.1,66.4,3.7a192.46,192.46,0,0,1,29.2,5.4,51.94,51.94,0,0,1,11.3,4.2,4.13,4.13,0,0,1,1.1.7c1.9,1.5,4.5-.5,4.5-2.6.5-22.7,1-45.5,1.6-68.2.8-36.3,1.7-72.5,2.5-108.8.2-8.4.4-16.7.6-25.1C674.77,177.1,668.77,177.1,668.67,181Z"/><path id="Vector_263" data-name="Vector 263" class="cls-1" d="M118.17,326l-6.3,2.6L4,329l-.6,219.7s-1.8,16.4,5.3,16.4S108,567,108,567s14.2-2.5,13.7-7.1c-.3-2.8-.4-50.3-.5-87.8,0-7.7-3.5-13.7-3.5-20a93.84,93.84,0,0,1,3.4-25A654.13,654.13,0,0,0,118,326.2"/><path id="Vector_264" data-name="Vector 264" d="M117.37,323.1c-1.9.8-3.9,1.6-5.8,2.4-1,.4.3.1.2.1h-6.2c-8.2,0-16.4.1-24.6.1-10.9,0-21.9.1-32.8.1-9.8,0-19.6.1-29.4.1-4.9,0-9.8-.1-14.6.1H4a3.08,3.08,0,0,0-3,3v23c0,8.2,0,16.5-.1,24.7,0,10,0,20-.1,30.1,0,10.9-.1,21.8-.1,32.7S.57,461.2.57,472c0,10-.1,20-.1,29.9,0,8.2,0,16.4-.1,24.5v16.4c0,2,.1,3.9,0,5.9-.2,4.2-.4,8.4.8,12.5.8,2.8,2.4,5.4,5.2,6.4a9.19,9.19,0,0,0,3.7.4l20.8.3,33,.6,30.6.6c3.3.1,6.6.1,9.8.2,1.3,0,2.6.1,3.8.1a25.25,25.25,0,0,0,4.6-1,30.73,30.73,0,0,0,7.8-3c2.3-1.3,4.4-3.4,4.3-6.2,0-.9-.1-1.9-.1-2.8-.2-12.3-.2-24.6-.3-36.9,0-8.8-.1-17.7-.1-26.5V479.9c0-4.7.2-9.4-.6-14-.7-4.1-2.5-8.4-2.8-12.4a63.59,63.59,0,0,1,.7-13.8c.5-3.2,1.1-6.5,1.9-9.7.2-.7.4-1.4.6-2.2a25.22,25.22,0,0,0,.4-4.8,652.52,652.52,0,0,0-.6-65.6c-.6-10.6-1.5-21.1-2.6-31.6a3.08,3.08,0,0,0-3-3c-1.5,0-3.2,1.4-3,3q3.45,32.25,3.8,64.8c.1,10.9-.1,21.8-.5,32.7,0,.7-.1,1.3-.1,2,0,.3-.1,1.4,0,.7,0,.1-.1.3-.1.4-.2.8-.5,1.7-.7,2.5-.8,3.3-1.4,6.7-1.9,10.1a67.34,67.34,0,0,0-.8,14.2c.4,4.4,1.9,8.6,2.8,12.9s.6,8.8.6,13.2v13.3c0,16.3.1,32.7.2,49,0,4.9.1,9.7.2,14.6,0,1,0,2.1.1,3.1,0,.4,0,.6.1,0,0,.4-.2.5.1,0,0,.1-.1.2-.2.3-.2.4.4-.2.1-.1-.1,0-.4.4-.5.5-.3.3.5-.3.1-.1-.1.1-.2.2-.3.2-.5.3-1.1.6-1.6.9-.3.1-.6.3-.9.4.6-.3-.2.1-.4.1-.6.2-1.3.5-2,.7-1.2.4-2.3.7-3.5,1-.7.2-1.4.3-2.2.5s.7,0,.4-.1a23.41,23.41,0,0,0-4.6-.1c-8.2-.2-16.4-.3-24.6-.5l-33.3-.6c-9.4-.2-18.7-.3-28.1-.5-2.5,0-5-.1-7.5-.1H8.77c-.1,0-.2-.1-.3-.1-.3,0,.6.2.2.1-.1,0-.2-.1-.3-.2-.3-.2.5.5.1.1a1.21,1.21,0,0,0-.5-.5c.4.4.1.2-.1-.2a2.51,2.51,0,0,0-.4-.7c-.1-.1-.2-.5.1.2-.1-.2-.1-.3-.2-.5a7.49,7.49,0,0,1-.4-1.6c-.1-.3-.1-.6-.2-.9s-.2-1.4-.1-.6a95.5,95.5,0,0,1-.1-10.7V533.8c0-7.1,0-14.3.1-21.4,0-9.2.1-18.5.1-27.7,0-10.5.1-21,.1-31.6,0-10.9.1-21.8.1-32.6,0-10.4.1-20.8.1-31.2,0-9.1,0-18.2.1-27.2,0-6.9,0-13.8.1-20.7V328.5l-3,3h12.1c9.4,0,18.9-.1,28.4-.1,11,0,22-.1,33.1-.1,8.7,0,17.5-.1,26.2-.1h8c1.7-.1,3.4-1.1,4.9-1.8.8-.3,1.5-.6,2.2-.9a3.07,3.07,0,0,0,2.1-3.7C120.67,323.8,118.87,322.5,117.37,323.1Z"/><path d="M872.86,152.34h0l-.11,0C873.2,151.9,873.12,152.19,872.86,152.34Z"/><path d="M875.24,151.66c-.38,0-.93,0-.32-.06a.79.79,0,0,1,.24,0h0Z"/></g><g id="cs"><path id="Vector_297" data-name="Vector 297" class="cls-2" d="M352.17,188.1c-.3-.4-1.7-1.7-2-2-12.1-15.8-30.9-20.4-30.9-20.4-1.4-.3-20.3-7.3-39.9,0-35.3,13.2-45.4,62-49.2,80.4-2.6,12.6-2.9,21.1-3,59-.1,33.9,0,62.6.2,84.1a187.17,187.17,0,0,0,141,5.6c5.7-99.5,15.6-3.5-1.2-31.7"/><path id="Vector_299" data-name="Vector 299" class="cls-3" d="M367.47,397.6v2.8c-35.6,43.8-68.71,81.22-75.11,88.92a28.59,28.59,0,0,0-6.5,13,25.37,25.37,0,0,0,0,9.3c1.5,8.9,16.31,38.28,26.91,85.48a145.86,145.86,0,0,0-33.4,0c-12.3,1.4-13.4,3.1-21.3,4.2-1.3.2-2.9.3-4.7.5-16.8,1.2-24.4-2-39.9,1.9a74.22,74.22,0,0,0-11.1,3.7c-25-52.9-30.92-82.45-34.22-98-1.4-6.7-4.1-19.8.9-34.3,0,0,.8-2.3,1.9-4.6,8.7-19.1,51.52-69.85,60.12-76.35l1.3-2.5s41.3,14.6,57.1,14.6,43.9-1.8,54.4-4.2C354.47,399.4,367.47,397.6,367.47,397.6Z"/><path id="Vector_302" data-name="Vector 302" class="cls-4" d="M200.87,604.9a75.31,75.31,0,0,0-15,6.2c-2.9,1.6-5.7,3.4-7.5,6.1s-2.6,6.3-1.1,9.2,4.9,4.4,8.1,5.3c7.4,2,15.1,2.1,22.7,2.1,9,.1,18.1.1,27-1.3,4-.7,8.1-1.7,11.5-4a20.78,20.78,0,0,0,7.9-11.3,43.35,43.35,0,0,0,1.5-13.9"/><path id="Vector_303" data-name="Vector 303" d="M200.07,601.9a74.39,74.39,0,0,0-14,5.6c-4.1,2.1-8.3,4.7-10.7,8.7-2.5,4.2-2.6,9.6.6,13.4,2.8,3.4,7.5,4.7,11.6,5.5a89.44,89.44,0,0,0,15.5,1.5c5.1.1,10.3.1,15.4,0a133,133,0,0,0,15.5-1.1c4.6-.6,9.4-1.6,13.4-4.1,9.6-5.9,11.9-17.8,11.5-28.2-.1-3.8-6.1-3.9-6,0,.3,7.6-.6,16.2-6.6,21.6-2.8,2.6-6.6,3.6-10.3,4.4a95.39,95.39,0,0,1-13.1,1.4c-4.6.2-9.2.2-13.8.1s-9.1-.1-13.6-.4a38.09,38.09,0,0,1-11.7-2.4c-3-1.2-4.9-3.4-4-6.7,1.1-3.9,5-6.2,8.4-8a66.81,66.81,0,0,1,13.6-5.5C205.37,606.7,203.87,600.9,200.07,601.9Z"/><path id="Vector_304" data-name="Vector 304" class="cls-4" d="M309.37,597.4c1.3,4.9,2.5,10.1,1.2,15-1.6,6.2-6.9,10.9-12.8,13.4s-12.4,3.2-18.7,3.9c-4.9.5-10,1-14.6-.8s-8.5-6.5-7.5-11.3"/><path id="Vector_305" data-name="Vector 305" d="M306.37,598.2c1.3,4.9,2.6,10.3.6,15.1a19.06,19.06,0,0,1-8.5,8.8c-4.5,2.5-9.7,3.5-14.8,4.1-2.7.3-5.4.6-8.2.8a29.88,29.88,0,0,1-7.9-.2,11,11,0,0,1-6.1-3.2,6.51,6.51,0,0,1-1.5-2.3c-.2-.5-.4-1.3-.5-1.6v-1.3a3,3,0,1,0-5.8-1.6c-1,5.9,2.4,11.4,7.6,14.1,5.8,3,12.6,2.3,18.8,1.6,11.6-1.2,25.1-3.7,31.2-14.9,3.6-6.6,2.5-14.1.6-21C311.17,592.9,305.37,594.4,306.37,598.2Z"/><path id="Vector_323" data-name="Vector 323" class="cls-4" d="M272,439.9c0-4.6,18.5-32.2,20.8-33.6,3.2-2,22.4,5,22.4,5,8.2,6,2.6,21.6,2.6,21.6s-9.3,13.7-13.7,17.4c-2.8,2.3-14-4.2-22.1-9.5C276.77,446.3,272,443.3,272,439.9Z"/><path id="Vector_324" data-name="Vector 324" d="M275,439.9c0-.7-.2.9,0,.1a2.35,2.35,0,0,0,.2-.8c.1-.3.2-.5.3-.8s-.3.7,0,.1l.3-.6c.9-1.8,1.8-3.6,2.8-5.4,2.5-4.4,5.2-8.6,8-12.8,1.3-2,2.6-3.9,4-5.8l1.8-2.4c.2-.3.5-.7.7-1,.4-.5-.3.4,0,0a1.76,1.76,0,0,1,.4-.5c.3-.4.7-.8,1-1.2.1-.1.3-.2.4-.3.2-.3-.8.5-.4.3s-.7.4-.2.1l.4-.1c0,.1-1,0-.2.1h1.9a.6.6,0,0,1,.4.1s-.6-.1-.3,0l1.7.3a110,110,0,0,1,13.6,3.8c.9.3,1.9.8,2.8,1-.2,0-1.1-.8-.7-.2l.3.3a4.62,4.62,0,0,1,.7.7c.3.4-.1-.2.2.4a4.05,4.05,0,0,1,.5.9c.1.1.4.9.2.4a6.89,6.89,0,0,1,.3.8,14.62,14.62,0,0,1,.5,2c.1.7,0-.1.1.4,0,.3.1.6.1.9a13.33,13.33,0,0,1,0,2,12.75,12.75,0,0,1-.1,1.9c0,.3-.1.6-.1.9-.1.7.1-.3-.1.4a45.37,45.37,0,0,1-1.2,5.3,3.18,3.18,0,0,0-.3.9c.1-.8.5-.9.2-.5a2.09,2.09,0,0,0-.4.6c-1.2,1.7-2.3,3.3-3.5,5-.8,1.1-1.7,2.3-2.5,3.4-.6.7-.5.7-1,1.3l-1.4,1.7c-.8,1-1.6,1.9-2.4,2.8a5.73,5.73,0,0,1-1.1,1.1l-.5.5c-.5.4.3-.2.3-.2.1-.2.3-.1.1,0-.5.1.3,0,.3,0h-.6c-.2,0-.9-.2-.2,0-.3-.1-.6-.1-.9-.2a35,35,0,0,1-3.5-1.2,89,89,0,0,1-9.6-5.2c-1.5-.9-3-1.9-4.5-2.9a2.88,2.88,0,0,0-3.6.5,7.91,7.91,0,0,1-2.6,2s-1.2.3-.6.2h-.7c-.4,0,.6.2-.1,0-.2,0-.3-.1-.5-.1.6.2.1.1,0-.1s-.6-.3,0,0c-.1-.1-.3-.2-.3-.3.5.8-.3-.9,0,0-.3-.3-.4-.4-.4-.6,0,.7-.1-.7,0,0-.1-3.9-6.1-3.9-6,0a7.08,7.08,0,0,0,5.1,6.7c3.8,1,7.5-1.1,10-3.7-1.2.2-2.4.3-3.6.5,3.4,2.2,6.8,4.3,10.3,6.2a35.37,35.37,0,0,0,9.2,3.9,8.54,8.54,0,0,0,4.2.1,8,8,0,0,0,3.2-2.2,59.42,59.42,0,0,0,5.6-6.8c1.7-2.2,3.4-4.5,5-6.9a38.77,38.77,0,0,0,2.3-3.3,12.13,12.13,0,0,0,1.1-3.7,42.8,42.8,0,0,0,1.1-8,20.48,20.48,0,0,0-1.7-9.1,10.54,10.54,0,0,0-5.2-5.4c-3.9-1.4-7.9-2.7-11.9-3.7a42.92,42.92,0,0,0-7.8-1.5,7.15,7.15,0,0,0-5.5,1.3,20.79,20.79,0,0,0-2.7,3.2c-1.3,1.7-2.5,3.4-3.7,5.1-3.1,4.4-6,9-8.8,13.6-2.2,3.7-4.7,7.5-6,11.6a15.52,15.52,0,0,0-.4,2.1C268.87,443.7,274.87,443.7,275,439.9Z"/><path id="Vector_325" data-name="Vector 325" class="cls-2" d="M326.67,239.7c15.7,47.3,16.8,77.6,23.7,92.2,7.1,15,42.3,23.8,46.1,2.3s-28.9-135.8-46.2-146c-.1-.1-.2-.1-.4-.2"/><path id="Vector_327" data-name="Vector 327" class="cls-2" d="M348.17,325.1c-2,5-3.7,6.8-6.5,12.4-4.6,9.2-47.8,63-47.8,63l28.8,33.2s55-64.3,61.3-74.7c5.3-8.7,16.4-26.1,12.2-36.9"/><path class="cls-5" d="M268.77,431.49l-43,46.64-.3.46c-2.17,3.49-6.41,12.17-2.81,28.47,4.46,20.21,30.65,96,34.15,94.39,1.69-.79-4.07-18.63-30.91-82.22"/><text class="cls-6" transform="translate(250.99 296.87)">C<tspan class="cls-7" x="29.7" y="0">S</tspan></text><path id="Vector_386" data-name="Vector 386" class="cls-4" d="M293.68,181.56a64,64,0,1,0-64-64A64.06,64.06,0,0,0,293.68,181.56Z"/><path id="Vector_387" data-name="Vector 387" d="M354.68,117.56a60.77,60.77,0,0,1-11.4,35.5,62.11,62.11,0,0,1-28.5,21.8,60.94,60.94,0,0,1-68.3-18.4,63.87,63.87,0,0,1-9.3-15.4,61.53,61.53,0,0,1-2.9-37.7,59,59,0,0,1,7.1-17.2A61.07,61.07,0,0,1,305.68,58a61.31,61.31,0,0,1,42.6,32.6,63.5,63.5,0,0,1,5.7,17.9,51.75,51.75,0,0,1,.7,9.1c0,3.9,6,3.9,6,0A66.62,66.62,0,0,0,348.38,79a67,67,0,0,0-121.5,33.6,67.12,67.12,0,0,0,39,66,67,67,0,0,0,94-50.4,74.23,74.23,0,0,0,.8-10.5C360.68,113.76,354.68,113.76,354.68,117.56Z"/><path id="Vector_388" data-name="Vector 388" d="M336.58,74.56c-4.6-5.4-12.21-4.9-18.41-3.8-3.5.6-7,1.3-10.5.6a48.46,48.46,0,0,0-5.3-.8,18.84,18.84,0,0,0-5.7.9,8.2,8.2,0,0,1-4.39.2c-1.7-.4-3.31-1.1-4.91-1.6a32.31,32.31,0,0,0-11.09-1.5A85.11,85.11,0,0,0,265,69.86c-2.9.5-5.7.9-8.5,1.6-6.6,1.6-13.09,4.6-16.89,10.5a3,3,0,1,0,5.2,3c2.7-4.1,7.39-6.2,12.19-7.5a91.31,91.31,0,0,1,18-2.9,28.27,28.27,0,0,1,9.61.8c3.3.9,6.4,2.6,10,2.5,3.2-.2,6.09-1.8,9.39-1.2,1.8.3,3.51.7,5.31.9a18.09,18.09,0,0,0,5.19-.2c3.6-.5,7.2-1.5,10.9-1.5,2.8,0,5.41.6,7.21,2.8a3,3,0,0,0,4.2,0A3.07,3.07,0,0,0,336.58,74.56Z"/><path id="Vector_389" data-name="Vector 389" d="M245.78,76.06a7.54,7.54,0,0,1-1,1.7c-.6.8-1.21,1.4-1.81,2.2a12.25,12.25,0,0,0-2.89,6.2c-.3,2.2-.4,4.4-.8,6.6q-.6,3-1.5,6c-2.5,8.1-6.4,15.8-8.4,24a38.33,38.33,0,0,0-.8,14.7c.2,1.6,2.3,2.5,3.7,2.1a3.16,3.16,0,0,0,2.1-3.7c-1.1-7.8,1.8-15.6,4.5-22.8,3-7.9,6.3-15.7,6.9-24.3a8,8,0,0,1,1.89-5.1c1.6-1.9,3.11-3.6,3.91-5.9a3.08,3.08,0,0,0-2.11-3.7A3,3,0,0,0,245.78,76.06Z"/><path id="Vector_390" data-name="Vector 390" d="M333.77,54.56c-2.9-2.2-5.1-5.3-7.4-8.1a37.56,37.56,0,0,0-8.3-7.6,34.12,34.12,0,0,0-21.5-5.3,3,3,0,0,0-.8,5.9,5,5,0,0,1,3.1,3.6c.5-1.1.9-2.3,1.4-3.4-.4.3,0,.2-.5.2-1-.1.3.1-.6-.1a8.11,8.11,0,0,1-2.1-1c-2-1-4.3-1.9-6.5-1.2a6,6,0,0,0-3.9,4,4.6,4.6,0,0,0,2,5.3c.5-1.9,1-3.7,1.5-5.6-3.4-.1-6.8-.1-10.2-.2-1.6,0-3.2,0-4.7-.1a9.88,9.88,0,0,0-4.8.7,4.94,4.94,0,0,0-2.6,3.4c0,.1-.2.8-.2.9l.2-.2.6-.3c-.3.1-.4.1-.1.1h-1a14.2,14.2,0,0,0-7,1.4,34.08,34.08,0,0,0-5.7,4.3,25.65,25.65,0,0,1-2.2,1.6,7.64,7.64,0,0,1-3.1,1.1,7.93,7.93,0,0,0-5.8,3.9,12.44,12.44,0,0,0-1.2,5.7c0,2,.2,4.1.2,6.1v1c0-.4.1-.4,0-.2l-.3,1.2c.3-.8.1-.1-.1,0,0,.1-.1.1-.1.2.3-.3.3-.4.1-.1,0,0-.3.2-.3.3.6-.5-.2,0-.4.1a3,3,0,1,0,3,5.2c3.8-1.8,4.3-6.2,4.1-10a46.88,46.88,0,0,1-.1-5.3v.1c0-.2.1-.4.1-.6s.4-1.1.1-.5c.1-.2.7-1,.2-.5l.2-.2c-.4.3.3-.2.3-.2a33.74,33.74,0,0,1,3.4-.9,13.53,13.53,0,0,0,3.4-1.7c1.7-1.2,3.7-3,5-4a17.77,17.77,0,0,1,2.7-1.7c-.4.2.1,0,.1,0a2.92,2.92,0,0,1,.9-.2c.1,0,.6-.1.1,0h1c2.7,0,5.7,0,7-2.9,0-.1.7-2.1.5-2.1,0,0-.6.5-.5.5s.5-.1.5-.1a45.13,45.13,0,0,1,5.2.1c3.8.1,7.6.1,11.4.2a3.23,3.23,0,0,0,2.9-2.2,3.09,3.09,0,0,0-1.4-3.4,1.26,1.26,0,0,1,.7,1c.1.5.1.6.1.3s-.1.3-.1.4c0-.3.1-.2.1-.2.2-.1.1-.1-.1,0a.35.35,0,0,0-.2.1s-1.1-.2.3,0a1.88,1.88,0,0,1,.8.2,11.94,11.94,0,0,1,1.6.8c2.6,1.4,5.8,2.3,8.5.5a3.09,3.09,0,0,0,1.4-3.4,11,11,0,0,0-7.3-7.8c-.3,2-.5,3.9-.8,5.9a28.56,28.56,0,0,1,19.2,4.9c6,4.1,9.2,10.9,15.1,15.2,1.3,1,3.3.2,4.1-1.1A3.21,3.21,0,0,0,333.77,54.56Z"/><path id="Vector_391" data-name="Vector 391" d="M247,65.36c.4.1-.4-.2,0,0l-.3-.2c.2.2.5.6.3.2a4.33,4.33,0,0,0-2.2-1.8c-2-.6-3.7.9-5,2.3a52.91,52.91,0,0,0-6.6,7.6,33.94,33.94,0,0,0-2.9,6.8,59.14,59.14,0,0,0-2.4,8.2,87.78,87.78,0,0,0-2.1,16.9c-.2,6-.4,12.6,3.1,17.9a3,3,0,0,0,5.2-3c-2.5-3.8-2.4-8.6-2.3-13a83.83,83.83,0,0,1,1.5-15,66.8,66.8,0,0,1,4.5-14.4c.3-.6.6-1.1.9-1.7-.4.6,0-.1.2-.3s.6-.7.9-1c1-1.2,2.1-2.4,3.2-3.6.5-.5.9-1,1.4-1.5.2-.2.6-.4.7-.7-.4.5-.2,0-.1.1a1.2,1.2,0,0,1-1.4,0,1.47,1.47,0,0,1-1.4-.5c-.5-.5-.3-.4,0,0a5.34,5.34,0,0,0,1.5,1.5,6.3,6.3,0,0,0,3.5,1.1c1.6.2,3-1.5,3-3A3.41,3.41,0,0,0,247,65.36Z"/><path d="M329,108.67c-1.18-1.08-2.49-1.45-4.5-2a19.47,19.47,0,0,0-4.2-.7c-1.83-.11-8.11-.47-13.1,3.5a7.74,7.74,0,0,0-3,4,5.35,5.35,0,0,0,1.3,5c2.1,2.2,5.8,3.1,8.8,3.6,4.09.68,7,1,10.3-.4,1-.43,6.42-2.79,6.7-7.4A7.22,7.22,0,0,0,329,108.67Z"/><path d="M311.17,115.17h.06C311.36,115.26,311.32,115.25,311.17,115.17Z"/><path d="M314.61,114.49a.57.57,0,0,0-.15,0l.11,0Z"/><path d="M259.14,115.39a.36.36,0,0,1-.14.1S259.05,115.44,259.14,115.39Z"/><path d="M260.67,115.57c.3.3-.4-.2,0,0Z"/><path d="M260.83,114.15s0,0,0,0-.08,0-.05,0Z"/><path d="M263.47,113.43a4.49,4.49,0,0,0-.51,0,.14.14,0,0,1,0-.06Z"/><path d="M263.57,116.57c-.18-.06-.08,0,0,0h0S263.66,116.57,263.57,116.57Z"/><path d="M265.37,117.47l0,0h0Z"/><path d="M278.29,110.81c-3.39-3.41-8.05-3.74-10.75-3.94a17.15,17.15,0,0,0-5.27.3c-1.46.32-6.32,1.39-8.2,5.3a5.35,5.35,0,0,0-.63,2.26c-.1,3.32,3.35,5.68,4.35,6.35a13.88,13.88,0,0,0,5.95,2.17,18.93,18.93,0,0,0,4,.22,19.26,19.26,0,0,0,5.5-.7c2-.57,7.21-2,8-5.4C281.93,114.48,279.16,111.68,278.29,110.81Z"/><path d="M265.37,117.47l0,0h0Z"/><path id="Vector_395" data-name="Vector 395" d="M282,142c2.8,2.2,6,4.8,9.7,5.4a8.48,8.48,0,0,0,6.2-1.4c1.6-1,3.3-2,4.9-3a3,3,0,0,0-3-5.2c-1.4.9-2.8,1.7-4.2,2.5a7.81,7.81,0,0,1-2,1.1c.7-.3-.9.2-.1.1h-.6c.3.1.3.1.1,0l-1-.3c-.1,0-1.2-.4-.7-.2a11.4,11.4,0,0,1-1.9-1l-1.8-1.2a5.5,5.5,0,0,1-.9-.7c.5.4-.4-.3-.5-.4-1.2-1-3.1-1.3-4.2,0C281,138.76,280.68,141,282,142Z"/><path id="Vector_396" data-name="Vector 396" d="M277.17,161.56c5.1.8,10.2,2.4,15.5,2.1,5.1-.3,10.4-.2,15.2-1.7,3.7-1.1,2.11-6.9-1.59-5.8-4.4,1.3-9.1,1.2-13.7,1.5s-9.31-1.2-13.91-1.9a3.16,3.16,0,0,0-3.7,2.1C274.67,159.26,275.57,161.36,277.17,161.56Z"/><path id="Vector_397" data-name="Vector 397" d="M283.18,96.56a74.61,74.61,0,0,0-16.2-3,71.18,71.18,0,0,0-8-.1,15.61,15.61,0,0,0-7.7,1.8c-3.3,1.9-.3,7.1,3,5.2,1.8-1,3.9-1,5.9-1a59.33,59.33,0,0,1,7.3.2,68.66,68.66,0,0,1,14.2,2.8C285.28,103.46,286.78,97.66,283.18,96.56Z"/><path id="Vector_398" data-name="Vector 398" d="M303.47,102.26c5.5-.6,10.9-1.4,16.4-1.9,4.3-.4,8.7-.4,12.3,2.1a3.1,3.1,0,0,0,4.11-1.1,3.06,3.06,0,0,0-1.11-4.1c-4.2-3-9.6-3.4-14.6-3-5.7.4-11.5,1.3-17.2,1.9a3.08,3.08,0,0,0-3,3C300.47,100.76,301.87,102.46,303.47,102.26Z"/><path id="Vector_400" data-name="Vector 400" d="M231.18,123.46c.2,0-6.6-25,3.8-49.5l10.4-7.5s-3.2-8.3,5.9-9.6l12.2-7.5h6.6l3.3-5.9,14.9.9,3.2-3.9,7.5,2.4v-6.4s13.6-1.7,24,10.7l8,9,6.5-1.7s3.6,1.6,9.3,16.9,13.3,33.4,11,48.3l-1.4,9.2s-5.5-27.7-12.7-36a70.78,70.78,0,0,1-11-17.8s-13.8-1.5-20-1-22.4.4-22.4.4-28.9-4-37.9,1.6-10.1,24.8-14.5,33.7C233.38,118.46,231.18,123.46,231.18,123.46Z"/><path id="Vector_406" data-name="Vector 406" d="M330.87,77.46c-.2,3.8,1.8,6.2,3.5,9.5.8,1.6,2.5,6.5,5,6.5,1.2,1.4,1,2.4,2.9,3.5,1.31,3.6,3,4.5,4.81,7.8a32.7,32.7,0,0,1,3.1,9.6,89.4,89.4,0,0,1,1.2,11.6,3,3,0,1,0,6,0c-.5-7.1-1-14.4-3.7-21.1a44.42,44.42,0,0,0-2.4-4.9c-1-1.6-2.2-3-3.2-4.6a31.15,31.15,0,0,1-2.1-5c-.8-1.9-2.3-3.2-3.61-4.8a14.66,14.66,0,0,1-2.9-10.1,3.08,3.08,0,0,0-3-3C334.67,72.46,331,75.86,330.87,77.46Z"/></g><g id="mb"><path id="Vector_329" data-name="Vector 329" class="cls-2" d="M521,186a5.55,5.55,0,0,0-.6-.8c-8.9-11.9-18.1-16.9-21.5-18.5-16.8-8.2-32.9-4.9-38.5-3.7-21.4,4.5-34.9,18.2-38.5,24.1-8.7,14-12.2,32.4-15.7,58-3.5,25.8-3,68-1.4,120a123.88,123.88,0,0,0,133.5,1.9c2.3-29.7,2.8-54.5,2.7-72.3"/><path id="Vector_331" data-name="Vector 331" class="cls-3" d="M507.57,576.9l-22.3,7.2c-10.2.4-19,1.1-26,1.9,0,0-22,2.5-27.8,9.7a14.26,14.26,0,0,0-2.8,5.8,14.6,14.6,0,0,0,.1,4.2,13.53,13.53,0,0,0,1,4.7,10.74,10.74,0,0,0,5.5,5,25.89,25.89,0,0,0,7.3,1.7,136.39,136.39,0,0,0,46.8-2.5,33.74,33.74,0,0,0,9.8-3.5,15.88,15.88,0,0,0,7.1-7.6,18.39,18.39,0,0,0,1.2-5A141.64,141.64,0,0,0,507.57,576.9Z"/><path id="Vector_333" data-name="Vector 333" class="cls-3" d="M507.57,577.4c-.82-2-2-4.74-2.8-6.8-4.36-10.6-6.48-15.81-7-17.07-4.37-10.53-8.69-14.29-18.15-30.32-9.17-15.52-13.75-23.28-13.77-30.7,0-8.56,3.9-14.93,11.74-27.32,9.23-14.56,16.1-20.58,28.18-35.19,5.5-6.67,13.31-16.61,22-29.5,0,0,12.3-17.1,9.5-33.6,0,0-28,13.2-38.1,16.3s-38.1,4.6-52.4.5-44.1-17.6-44.1-17.6A109.15,109.15,0,0,1,377,420.26c-15.76,21.23-26.31,38.18-30.72,46.12,0,0-6.74,12.12-7.15,22.64a46.45,46.45,0,0,0,1.21,12.27c1.41,6.11,4.14,11.93,8.63,19.31,8,13.3,15.2,27.1,23.2,40.4,4.1,6.8,10.5,17.5,18.5,31a94.18,94.18,0,0,1,15.8-3.9c7.4-1,40.5-.9,40.5-.9l39.3-3Z"/><path id="Vector_335" data-name="Vector 335" class="cls-4" d="M432.07,617.9a21.5,21.5,0,0,1-8.3,3.7,56.73,56.73,0,0,1-5.8.5c-2.5.3-4.9.9-7.4,1.3a87.23,87.23,0,0,1-10.2.6c-7.2.1-14.5.1-21.7-.4-10.1-.7-12.2-3.6-12.9-4.4a13.34,13.34,0,0,1-3-10.9c1.4-7.5,10.1-11.1,18.5-14.5a95.12,95.12,0,0,1,33.7-6.7l28.5.9s-13.1,5.2-14,10.8,0,15.3,3.8,16.3Z"/><path id="Vector_336" data-name="Vector 336" d="M430.57,615.3a18.13,18.13,0,0,1-8.2,3.5c-2.2.3-4.4.3-6.5.6s-4,.8-6,1.1a81.66,81.66,0,0,1-12.1.5c-4.3,0-8.6,0-12.8-.1a58.76,58.76,0,0,1-11.1-1,13.32,13.32,0,0,1-1.9-.5,1.85,1.85,0,0,0-.7-.2c-.1,0-.9-.3-.5-.2s-.2-.1-.3-.2-.3-.2-.5-.3a8.79,8.79,0,0,0-1-.6c-.5-.3.3.2.2.1s-.2-.1-.3-.2-.3-.3-.5-.5a8.32,8.32,0,0,1-1.3-1.8,9.85,9.85,0,0,1-.8-8.2c.2-.6.1-.3,0-.2.1-.1.1-.3.2-.4a2.18,2.18,0,0,1,.5-.8,4.49,4.49,0,0,1,1-1.3,17.39,17.39,0,0,1,3-2.6,44.38,44.38,0,0,1,8.4-4.3,100.37,100.37,0,0,1,16-5.4,83.36,83.36,0,0,1,19.9-2.4c2.3,0,4.6.1,7,.2,7,.2,14,.6,21,.6h.5c-.3-2-.5-3.9-.8-5.9a42.17,42.17,0,0,0-11.8,6.8,11.47,11.47,0,0,0-4.4,7.5,32.43,32.43,0,0,0,.4,10.3c.6,3.4,2.1,7.3,5.7,8.3-.6-1.5-1.2-2.9-1.8-4.4-.4.9-.9,1.8-1.3,2.7a3.06,3.06,0,0,0,1.1,4.1A3,3,0,0,0,435,619c.4-.9.9-1.8,1.3-2.7a3,3,0,0,0-1.8-4.4c-.5-.2.6.3,0,0-.2-.1.5.3,0,0-.1,0-.1-.2-.2-.2.1.1.3.5.1.1-.1-.2-.3-.5-.4-.7-.3-.6,0,.1-.2-.4-.1-.3-.2-.5-.3-.8a16,16,0,0,1-.5-2.1c0-.2-.1-.3-.1-.5s-.1-.7-.1-.4a3.55,3.55,0,0,1-.1-.7,17.7,17.7,0,0,1-.1-2.3c0-1.4,0-2.8.1-4.2,0-.5-.1.2.1-.4a1.42,1.42,0,0,1,.2-.6c.2-.6-.2.2.1-.2.1-.2.3-.5.4-.7.4-.6-.2.1.2-.2.2-.2.3-.4.5-.6a17.41,17.41,0,0,1,1.4-1.2c.1-.1.3-.2.4-.3s-.3.3-.1,0,.5-.3.7-.5c.5-.4,1.1-.7,1.6-1.1,1-.6,2-1.2,3.1-1.8.9-.5,1.9-.9,2.9-1.4.4-.2,1.2-.5.2-.1.1,0,.2-.1.3-.1a2.9,2.9,0,0,0,2.1-3.3,3,3,0,0,0-3-2.6L424,584l-8.5-.3a92,92,0,0,0-20.2,2.3,99.23,99.23,0,0,0-17,5.5c-6.1,2.5-13.2,5.5-16.6,11.6-3.3,5.8-1.9,13.5,2.6,18.3,3.3,3.5,8.9,4.3,13.4,4.7a217.63,217.63,0,0,0,26.8.4,50.55,50.55,0,0,0,6.8-.6c2.1-.3,4.1-.9,6.2-1.2,3.7-.5,7.3-.4,10.8-1.8a28.1,28.1,0,0,0,5.4-2.9,3.16,3.16,0,0,0,1.1-4.1C433.87,615.1,431.87,614.4,430.57,615.3Z"/><path id="Vector_368" data-name="Vector 368" class="cls-2" d="M499.67,225.1c8,43.9,8,70.2,12.3,84,4.4,14.2,32,27,38,8.4s-5.8-119.4-30.8-134.4"/><path id="Vector_370" data-name="Vector 370" class="cls-4" d="M537.67,405c-.1-1.2-2.2-7.7-3.7-12.2-1.6-8.6-6.3-18-15.5-13.9-.1,0-.2.1-.3.1a.44.44,0,0,0-.1.3c-1.8,1.5-8.4,7.3-10.8,9.8a64.9,64.9,0,0,0-7.8,9.8c-8,14.2,3.1,40.8,12.9,41.4,4,.2,8-3.9,12.3-8.4,3-3.1,4.5-5.7,7.2-10.2C536.07,414.4,538.27,410.1,537.67,405Z"/><path id="Vector_371" data-name="Vector 371" d="M540.67,405c-.4-3.2-1.7-6.4-2.6-9.5-.6-1.9-1.1-3.7-1.6-5.6a50.51,50.51,0,0,0-1.8-5.5c-1.4-3.2-3.4-6.3-6.5-8.1-3.6-2.1-7.5-1.7-11.2-.1h3a3,3,0,0,0-3.6.5c.4-.3.9-.5,1.3-.8a3.67,3.67,0,0,0-1.6.9c-.2.2-.3.5-.5.7.7-.7-.1,0-.3.1-.6.5-1.2,1.1-1.8,1.6-1.6,1.4-3.2,2.8-4.8,4.3a94.51,94.51,0,0,0-7.6,7.9c-2.9,3.6-5.4,7.3-6.5,11.8a36,36,0,0,0-.4,13.1c1.1,7.9,4.2,16.3,9.7,22.3,2.2,2.4,5.1,4.4,8.4,4.6,5.6.4,10.2-4.7,13.7-8.4a69.47,69.47,0,0,0,10.3-14.9c2.5-4.5,4.9-9.5,4.4-14.9a3.15,3.15,0,0,0-3-3c-1.5,0-3.2,1.4-3,3a11.3,11.3,0,0,1,0,2.6,1.27,1.27,0,0,1-.1.6c.1-.5,0,.1,0,.2a8.33,8.33,0,0,1-.4,1.5,24.89,24.89,0,0,1-2.4,5.6c-2.2,4.1-4.7,8.8-7.5,12.2a75.37,75.37,0,0,1-5.5,5.8,28.48,28.48,0,0,1-2.6,2.3,9.12,9.12,0,0,1-2.5,1.4c-.7.2-.4.2-.9.2h-.6c-.3,0-.3-.2.3,0-.2-.1-.5-.1-.8-.2-.1,0-.2-.1-.3-.1h0c-.5-.3-1-.5-1.5-.8,0,0-.6-.4-.2-.1s-.2-.1-.2-.2a3,3,0,0,1-.8-.8c-.5-.5-.9-1-1.4-1.5-.1-.2-.3-.3-.4-.5.1.1.3.5,0,0s-.5-.7-.8-1.1a41.72,41.72,0,0,1-2.6-4.6l-.6-1.2c0-.1-.2-.5,0-.1a1.42,1.42,0,0,1-.2-.6c-.4-1-.7-1.9-1.1-2.9a55.43,55.43,0,0,1-1.4-5.5,40.77,40.77,0,0,1-.6-5.3v-2.6c0-.5.1-.9.1-1.4a2.49,2.49,0,0,1,.1-.8c-.1.5.1-.3.1-.4.1-.8.3-1.6.5-2.5a5.64,5.64,0,0,1,.4-1.2c.1-.2.5-1.3.3-.9a25.05,25.05,0,0,1,3.2-5.2,58.65,58.65,0,0,1,7.6-8.2c1.6-1.5,3.3-3,4.9-4.4,1.2-1.1,2.9-2.2,3.7-3.6-.6.5-1.2.9-1.8,1.4a5.07,5.07,0,0,0,1.6-.9c-1.2.2-2.4.3-3.6.5,1.2.9,2.5.2,3.7-.2.3-.1.7-.2,1-.3s.4-.1.1,0h1.8a2.09,2.09,0,1,0,.3.1c.1,0,1.1.4.6.2a2.51,2.51,0,0,1,.7.4c.1.1,1,.7.5.3a3,3,0,0,1,.8.8,4.84,4.84,0,0,1,1,1.2,22.91,22.91,0,0,1,2,3.7,36.44,36.44,0,0,1,1.4,4.7c.4,1.7,1,3.4,1.5,5.1s1.1,3.4,1.6,5.1a13.32,13.32,0,0,1,.5,1.9c.1.3.4,2,.2.7a3.08,3.08,0,0,0,3,3C539.17,408,541,406.6,540.67,405Z"/><path id="Vector_372" data-name="Vector 372" class="cls-2" d="M510.17,302.1c.2,9.3-5.2,81.5-5.2,81.5l38.2,10.1s8-81.5,7.5-92.4c-.3-5.2,1.2-11.7-.4-17.2"/><path class="cls-5" d="M449.77,417s-46.47,44.11-48,59.43.51,26.47,9.44,41.36,35.61,67.66,35.61,67.66"/><text class="cls-6" transform="translate(422.9 296.87)"><tspan class="cls-8">M</tspan><tspan x="37.23" y="0">B</tspan></text><path id="Vector_415" data-name="Vector 415" class="cls-4" d="M470.32,179.3a64,64,0,1,0-64-64A64,64,0,0,0,470.32,179.3Z"/><path id="Vector_416" data-name="Vector 416" d="M531.32,115.3a60.77,60.77,0,0,1-11.4,35.5,62.11,62.11,0,0,1-28.5,21.8,60.67,60.67,0,0,1-37.9,1.4,61.46,61.46,0,0,1-30.4-19.9,63.87,63.87,0,0,1-9.3-15.4,61.53,61.53,0,0,1-2.9-37.7A59,59,0,0,1,418,83.8a61.07,61.07,0,0,1,64.3-28.2,60.56,60.56,0,0,1,31.9,17.6,61.59,61.59,0,0,1,10.6,15,62.49,62.49,0,0,1,5.7,17.9,54.31,54.31,0,0,1,.8,9.2c0,3.9,6,3.9,6,0A66.62,66.62,0,0,0,525,76.7a67,67,0,0,0-106.3-4.1,67,67,0,0,0,23.9,103.7,67,67,0,0,0,94-50.4,74.23,74.23,0,0,0,.8-10.5C537.32,111.5,531.32,111.5,531.32,115.3Z"/><path id="Vector_417" data-name="Vector 417" d="M407.62,95.2c.4-8,2.6-27.5,17.6-40a49.72,49.72,0,0,1,9-5.8c24.1-12,64.2-11.6,85.3,9.7a50.75,50.75,0,0,1,13,21,46.37,46.37,0,0,1,2,16,303.2,303.2,0,0,0-30.6-4.3c-28.8-2.6-52.7-.7-76.4,1.3C419.22,93.9,412.22,94.7,407.62,95.2Z"/><path id="Vector_418" data-name="Vector 418" d="M410.62,95.2c.1-1.9.3-3.7.5-5.5.1-.7-.1.3,0-.3,0-.2.1-.5.1-.7l.3-1.8c.2-1.3.5-2.6.8-3.8A50.08,50.08,0,0,1,419,66.9a40.56,40.56,0,0,1,6.2-7.5l3-2.7c-.5.4.1,0,.3-.2s.5-.3.7-.5c.7-.5,1.4-.9,2.1-1.4a48.2,48.2,0,0,1,5-2.7,14.17,14.17,0,0,1,1.8-.8c.9-.4.9-.4,1.7-.7a79.2,79.2,0,0,1,8.2-2.8,88.81,88.81,0,0,1,17.5-2.9c3.1-.2,6.3-.2,9.5-.1a62.31,62.31,0,0,1,9,.9,71.77,71.77,0,0,1,9.2,2,57.46,57.46,0,0,1,8.3,3,53.13,53.13,0,0,1,14.8,9.6,45.72,45.72,0,0,1,4.3,4.5,52.87,52.87,0,0,1,4.7,6.4,44.1,44.1,0,0,1,6.4,20.9,30.85,30.85,0,0,1,0,4.3l3.8-2.9a318.52,318.52,0,0,0-50.6-5.6,435.73,435.73,0,0,0-51.1,2c-8.7.7-17.4,1.5-26.1,2.5a3.08,3.08,0,0,0-3,3c0,1.5,1.4,3.2,3,3,15.7-1.8,31.5-3.2,47.3-4a336.85,336.85,0,0,1,52.2,1c9,.9,17.8,2.2,26.7,3.9a3,3,0,0,0,3.8-2.9,51.75,51.75,0,0,0-14.7-38c-8.8-9.1-20.3-14.9-32.6-17.6a92.13,92.13,0,0,0-39.8.1c-12.5,2.7-25.1,8.2-33.3,18.3-7.7,9.5-11.4,21.5-12.5,33.6-.1.9-.1,1.7-.2,2.6a3,3,0,0,0,3,3A3.08,3.08,0,0,0,410.62,95.2Z"/><path id="Vector_419" data-name="Vector 419" d="M477.52,37.2a7.26,7.26,0,0,0-5.6-5.2,26.82,26.82,0,0,0-8-.1c-2.8.2-5.6.4-7.8,2.3-1.8,1.6-2.6,4.1-3,6.4a3,3,0,0,0,3.7,3.7c5.4-1,10.9-2,16.3-2.9.8-.1,1.6-.3,2.4-.4a3.12,3.12,0,0,0,2-3.8,3,3,0,0,0-3.7-2.1c-5.4,1-10.9,2-16.3,2.9-.8.1-1.6.3-2.4.4l3.7,3.7c.2-.8.3-1.5.5-2.2.1-.2.1-.4.2-.6-.1.3-.1.2,0,0a2.19,2.19,0,0,0,.3-.5c-.2.4,0,0,.1-.1l.2-.2c-.2.2.5-.2.4-.2-.3.1,0,0,.1,0s.4-.1.6-.1.4-.1.6-.1c-.5.1.2,0,.3,0a8.6,8.6,0,0,1,1.6-.1,37.5,37.5,0,0,1,5.8-.2h.3c.2,0,.4.1.6.1s.6.2.3.1l.3.2c.2.1.2.2,0,0l.4.4c-.4-.4.1.2-.1-.1s.1.3.1.4a3.07,3.07,0,0,0,3.7,2.1A3.13,3.13,0,0,0,477.52,37.2Z"/><path id="Vector_420" data-name="Vector 420" class="cls-9" d="M458.22,70.7c2.1-1.9,7.4-6.1,14.7-6.5,2-.1,7.1-.4,10.4,2.6a12.34,12.34,0,0,1,3,4.3,10.87,10.87,0,0,1,.6,2.8,108.83,108.83,0,0,1-.6,11.4c-.2,1.9-.9,4.3-2.8,4.6a16.31,16.31,0,0,0-2.7-6c-1.4-1.7-3.8-2.8-5.9-2-1,.4.3,5.1-.6,5.7-.8.4-3.7-3.3-4.5-3.2-4.1.4-1.9,1.1-4.6-2-2-2.3-10.4-.3-12.4-2.6,2.6-1.1,6-10.6,8.5-11.7"/><path id="Vector_421" data-name="Vector 421" class="cls-9" d="M459.32,71.8a22.71,22.71,0,0,1,15.3-6.1c3.1,0,6.3.6,8.5,3a10.15,10.15,0,0,1,1.3,1.8c.1.3.3.5.4.8s.1.1.1.3c.7,1.8.5,3.7.5,5.6-.1,2.5-.2,4.9-.5,7.4-.1,1.3-.2,3.8-1.8,4.1a16.18,16.18,0,0,0,1.8,1c-1.2-4.2-3.4-9.5-8.7-9.4-2,0-3.2.9-3.3,2.8a14.08,14.08,0,0,0,.1,2,10.74,10.74,0,0,0,0,1.8c-.3-.3,1.3-.6,1.3-.6s0,.1-.1-.1-.4-.3-.6-.5c-.6-.5-1.2-1.1-1.8-1.6a3.5,3.5,0,0,0-4.1-.8,3.54,3.54,0,0,0-.6.1c0-.1.4.2.7.3s.1.3.1.1l-.2-.2a5.5,5.5,0,0,0-.7-.9,5.91,5.91,0,0,0-3.5-2.5,26.88,26.88,0,0,0-5.7-.4c-1.2,0-3.3,0-4.1-.9l-.3,2.4c2.1-1,3.4-3.9,4.5-5.9.7-1.3,1.4-2.5,2.2-3.7a6.25,6.25,0,0,1,1.8-2.1c1.7-.8.2-3.4-1.5-2.6-2.1,1-3.4,3.9-4.5,5.9-.7,1.3-1.4,2.5-2.2,3.7a6.25,6.25,0,0,1-1.8,2.1,1.56,1.56,0,0,0-.3,2.4c2,2.1,5.9,1.7,8.6,1.8,1.1.1,2.8,0,3.7.7s1.2,2,2.1,2.6,2.1.1,3,0c.1,0,1,0,.4-.1-.4-.1-.1-.1,0,.1s.4.3.5.4c.5.5,1.1,1,1.6,1.5,1,.9,2.5,2,3.7.8,1-.9.8-2.6.7-3.8a13.28,13.28,0,0,0,0-2V83c.1-.3,0-.1-.4.5l1-.1a3,3,0,0,1,1.5.5c2.4,1.3,3.2,4.2,3.9,6.7a1.43,1.43,0,0,0,1.8,1c4.4-.9,4.1-7.2,4.3-10.6.2-4,.8-8.3-1.3-12-4-7-13.4-7.4-20.3-5a28,28,0,0,0-9.5,5.7C455.72,70.9,457.82,73,459.32,71.8Z"/><path id="Vector_422" data-name="Vector 422" class="cls-9" d="M491.42,79.2c.1-1.1-.7-2-1.3-2.9a39.71,39.71,0,0,1-1.7-3.6,4.25,4.25,0,0,0-2.9-2.5c.4.9.8,1.8,1.3,2.7a3.92,3.92,0,0,0,.8,1.4c.2.4.6.6.8,1a17.68,17.68,0,0,1,1.6,2.2,8.45,8.45,0,0,1,1.6,3.3c-1.2.2-2.5.4-3.8.6a5,5,0,0,0,1.5-1.4.76.76,0,0,0,.2-.4.52.52,0,0,0-.2-.4,9.06,9.06,0,0,0-1.6-1.1c.1.2.4.1.6,0s.2-.4.2-.6a8.81,8.81,0,0,0-.4-3.2c.2.6.4,1.1.6,1.7.2-.1.2-.5.2-.8a13.12,13.12,0,0,0-.9-3.4,12.51,12.51,0,0,0-3.7-3.9"/><path id="Vector_423" data-name="Vector 423" class="cls-9" d="M493,79.2a5.5,5.5,0,0,0-1.2-3.2,18.29,18.29,0,0,1-1.4-2.8c-.8-2-2.2-4-4.4-4.5a1.54,1.54,0,0,0-1.7,2.2c.5,1,.9,2,1.4,2.9a9.58,9.58,0,0,0,1.7,2.4,18.82,18.82,0,0,1,1.6,2.3,7.74,7.74,0,0,1,1.2,2.6c.3-.6.7-1.2,1-1.9-1.2.2-2.5.4-3.8.6l1.2,2.7c1-.6,2.4-1.8,2.4-3.1s-1.5-2.3-2.6-2.7a1.5,1.5,0,0,0-1.5,2.6,1.86,1.86,0,0,0,1.9.1,2.06,2.06,0,0,0,1-1.9,9.47,9.47,0,0,0-.5-3.7c-1,.3-1.9.5-2.9.8.2.6.4,1.1.6,1.7a1.51,1.51,0,0,0,2.5.7c.9-.9.6-2.1.4-3.2a14,14,0,0,0-.9-2.9,12.74,12.74,0,0,0-3.9-4.1,1.48,1.48,0,1,0-2.1,2.1,13.32,13.32,0,0,1,3,2.8,4.17,4.17,0,0,1,.8,1.8,5.16,5.16,0,0,1,.2,1.1,1.09,1.09,0,0,0,.1.5c.1.5-.1.2.3-.2a23.35,23.35,0,0,1,2.5.7c-.2-.6-.4-1.1-.6-1.7a1.4,1.4,0,0,0-1.8-1,1.6,1.6,0,0,0-1.1,1.9,3.53,3.53,0,0,1,.3,1.4v1.2l.5-.5a.37.37,0,0,0,.3-.1c.2.1.5.1.8.2l-.1-.1c-.5.9-1,1.7-1.5,2.6a4.05,4.05,0,0,1,.9.5c.1.1.2.1.3.2s.2.4,0-.1v-.8c-.1.3-.7.7-.9.9a1.49,1.49,0,0,0,1.2,2.7c1.2-.2,2.5-.4,3.8-.6.8-.1,1.2-1.1,1.1-1.9-.4-2.1-1.9-4-3.2-5.7a11.22,11.22,0,0,1-1.6-2.2c-.5-1-.9-2-1.4-3-.6.7-1.1,1.5-1.7,2.2,1.5.3,2.2,2,2.7,3.3a13.43,13.43,0,0,0,1.2,2.4,3.82,3.82,0,0,1,.9,1.8C489.92,81.1,492.92,81.1,493,79.2Z"/><path d="M450.92,108.6c-1.7-1.69-5-3.28-7.5-1.9-2.2,1.2-3.3,3.8-3.7,6.2a21.89,21.89,0,0,0-.33,2.93v0c0,.58-.07,1.16-.07,1.74a15,15,0,0,0,1.1,7,6.9,6.9,0,0,0,5.8,4,6.09,6.09,0,0,0,5.4-3.1,11.43,11.43,0,0,0,1.4-5.4c.1-1,.1-2,.1-3,0-3.19.13-3.2.1-3.5A8.4,8.4,0,0,0,450.92,108.6Z"/><path d="M500.32,117.8a16,16,0,0,1-2.3,6.8c-1.07,1.84-3,3.5-5.06,3.55a4.69,4.69,0,0,1-4.34-1.35,2.6,2.6,0,0,1-.38-.53,21.28,21.28,0,0,1-2.42-5.07,14.87,14.87,0,0,1,.4-7.5.47.47,0,0,1,0-.1c1.6-4.21,4.91-7,7.85-6.7C498.33,107.27,500.39,113.7,500.32,117.8Z"/><path d="M492.26,121.13h0a0,0,0,0,0,0,0Z"/><path d="M492.68,119.42h0s0,0,0,0Z"/><path id="Vector_426" data-name="Vector 426" d="M462.42,139.8a27.62,27.62,0,0,0,4.3,4.7,7.2,7.2,0,0,0,4.4,1.8,10.86,10.86,0,0,0,4.6-1.5,17.22,17.22,0,0,0,4.8-4.9,3,3,0,0,0-1.1-4.1,3.06,3.06,0,0,0-4.1,1.1,5.58,5.58,0,0,0-.5.8l-.2.2a5.73,5.73,0,0,1-1.1,1.1l-.4.4c-.1.1-.2.2-.3.2.4-.3.4-.3.2-.1s-.7.4-1,.6-.3.1-.5.2.8-.3.1,0c-.3.1-.6.1-.9.2.8-.3.6-.1.2,0h-.3c-.5,0,.9.2.3,0s.5.3.3.1a5.58,5.58,0,0,0-.8-.5c.2.1.6.5.2.1a.78.78,0,0,1-.4-.4l-1.5-1.5a17.41,17.41,0,0,1-1.2-1.4c-.2-.3-1.1-1.4-.1-.1a4.2,4.2,0,0,0-1.8-1.4,3.06,3.06,0,0,0-2.3.3C462.32,136.5,461.42,138.5,462.42,139.8Z"/><path id="Vector_427" data-name="Vector 427" d="M490.12,150.2c-1.3,1.2-2.6,2.2-4,3.3a15.65,15.65,0,0,1-5,2.5,50.07,50.07,0,0,1-12.2,1.9,17.93,17.93,0,0,1-15.9-9.1c-1.9-3.4-7.1-.3-5.2,3a24.07,24.07,0,0,0,20.6,12,46.51,46.51,0,0,0,7.4-.8,63.05,63.05,0,0,0,7.3-1.5,18.78,18.78,0,0,0,6.3-3.2c1.7-1.3,3.4-2.6,4.9-4C497.12,151.8,492.92,147.5,490.12,150.2Z"/><path id="Vector_428" data-name="Vector 428" d="M456.32,96.9c-4.2-.7-8.5-1.6-12.8-1.6a24,24,0,0,0-11.2,2.7,3,3,0,1,0,3,5.2,10.91,10.91,0,0,0,1.1-.6c.1-.1.4-.2.1-.1.2-.1.4-.1.6-.2a21.72,21.72,0,0,1,2.4-.7c.4-.1.8-.1,1.1-.2.5-.1-.4,0,.1,0a1.27,1.27,0,0,0,.6-.1,20.9,20.9,0,0,1,2.5-.1,69.22,69.22,0,0,1,10.9,1.4,3.07,3.07,0,0,0,3.7-2.1A3,3,0,0,0,456.32,96.9Z"/><path id="Vector_429" data-name="Vector 429" d="M484.32,102.2c6-.9,13.5-1.6,19.3,1a3.06,3.06,0,0,0,4.1-1.1,3,3,0,0,0-1.1-4.1c-7.6-3.4-15.9-2.8-23.9-1.6-1.6.2-2.5,2.3-2.1,3.7C481,101.9,482.62,102.5,484.32,102.2Z"/><path id="Vector_430" data-name="Vector 430" d="M408.12,109.6a35.14,35.14,0,0,0-5.7-2.1,13,13,0,0,1-4.6-2.2,21.16,21.16,0,0,1-3.4-3.9c-1.1-1.5-1.7-2.5-1.6-4.4,0-6.1,3.2-13.3,9.3-15.1,1.4-.4,2.8-.7,4.3-1,.8-.2,1.7-.3,2.5-.5.3,0,.6-.1.9-.1.8-.1-.4,0,.4,0l-3-3c-1,10.2-2.1,20.4-3.1,30.6-.2,1.5-.3,2.9-.4,4.3-.2,1.6,1.5,3,3,3a3.08,3.08,0,0,0,3-3c1-10.2,2.1-20.4,3.1-30.6.1-1.5.3-2.9.4-4.3a3,3,0,0,0-3-3,48.29,48.29,0,0,0-9.2,1.8,18,18,0,0,0-9.6,6.8A24.15,24.15,0,0,0,387,95.3a13.78,13.78,0,0,0,1,7.2,30.2,30.2,0,0,0,4,5.4,16.15,16.15,0,0,0,6.4,4.6c2.2.9,4.6,1.3,6.8,2.4a3.06,3.06,0,0,0,4.1-1.1A3.19,3.19,0,0,0,408.12,109.6Z"/><path id="Vector_431" data-name="Vector 431" d="M406.62,112.2c-3.2-1.5-5.6-1.6-8.7-3.2-2.5-1.3-4.3-3.7-6-6a11.65,11.65,0,0,1-1.7-2.8,9.25,9.25,0,0,1-.4-2.9,24.47,24.47,0,0,1,1.1-7.1c1.6-4.8,5-9.3,9.8-10.9a63,63,0,0,1,9.4-2Z"/></g><g id="nb"><path id="Vector_265" data-name="Vector 265" class="cls-4" d="M817.83,587.5a.31.31,0,0,1-.1.2l5.6,1c-1.1-.5-2.1-.8-2.9-1.2A11.29,11.29,0,0,0,817.83,587.5Z"/><path id="Vector_266" data-name="Vector 266" d="M814.93,586.7a.1.1,0,0,1-.1.1,3.06,3.06,0,0,0,.3,2.3,3.19,3.19,0,0,0,1.8,1.4c1.6.3,3.2.6,4.9.9.2,0,.5.1.7.1a2.44,2.44,0,0,0,1.2,0,1.5,1.5,0,0,0,1.1-.4,3.56,3.56,0,0,0,1.4-1.8,3.06,3.06,0,0,0-.3-2.3c-.2-.2-.3-.4-.5-.6a3.53,3.53,0,0,0-1.3-.8c-.9-.3-1.8-.7-2.6-1a5.11,5.11,0,0,0-2.1-.3,8.6,8.6,0,0,0-1.6.1,2.66,2.66,0,0,0-1.2.3,2.07,2.07,0,0,0-1,.6,3.33,3.33,0,0,0-.9,2.1,3.08,3.08,0,0,0,3,3,11.3,11.3,0,0,1,2.6,0c-.3,0-.5-.1-.8-.1,1,.4,2,.8,2.9,1.2.5-1.9,1.1-3.9,1.6-5.8-1.6-.3-3.2-.6-4.9-.8-.2,0-.5-.1-.7-.1.7,1.2,1.4,2.5,2.1,3.7a.31.31,0,0,1,.1-.2,3.12,3.12,0,0,0-.3-2.3,3.56,3.56,0,0,0-1.8-1.4,3.06,3.06,0,0,0-2.3.3A3.8,3.8,0,0,0,814.93,586.7Z"/><path id="Vector_267" data-name="Vector 267" class="cls-3" d="M913.17,454.3c-10.93-31-31.16-68.1-36-76.9a156.74,156.74,0,0,1-111.53,2.8l-15.83-6.6a174.15,174.15,0,0,0,13.38,40.1c1.43,3,2.45,5.1,3.47,6.9,1.23,2.3,2.15,3.9,2.25,4.1,16.34,28.2,16.24,62.7,16.24,62.7-.1,11.7-2.14,14.2-6.94,36.7a512.2,512.2,0,0,0-9.2,61.7l2.86,1c11.85,0,24.21-1,36-1a27,27,0,0,1,7.14.7l-.51,1.2c.31-.1.72-.1,1-.2l.3-.9c.72.2,1.53.5,2.35.8a36.59,36.59,0,0,0,6.64.2c15.12-2.1,29-2,40.85,1,3.88-6.2,31.56-49.3,45.45-80.8a69.81,69.81,0,0,0,6.64-26.3C918.37,469.9,915.41,460.9,913.17,454.3Zm-58.84,32.3A36.17,36.17,0,0,1,852,495c-5.7,15.7-11.4,31.3-17.1,47l-17.2,44.8c5.8-15.4,20.4-59.6,24-79.6a131.42,131.42,0,0,0,2.1-21.4c0-7.4-.6-14.6-3.3-29.3-1.3-7-3.1-15.5-5.4-25.3l-2.77-4.93c7.33,11.12,18.67,38.13,21.37,52.13A28.39,28.39,0,0,1,854.33,486.6Z"/><path id="Vector_270" data-name="Vector 270" class="cls-4" d="M864.93,588.2c4.3,1.4,11.2,3.1,16.6,9,1.9,2,4.5,4.9,4.5,8.8a11.66,11.66,0,0,1-1.9,5.8c-3.6,5.5-20.6,7-42.7,4.4-1.5-.3-3.1-.7-4.6-1l-3.8-2.7s5.6-9.5-.4-14.7-10.6-9.1-10.6-9.1S858.23,585.9,864.93,588.2Z"/><path id="Vector_271" data-name="Vector 271" d="M864.13,591.1c5.7,1.9,10.9,3.5,15.1,8,1.8,1.9,3.8,4,3.8,6.7v.4a.9.9,0,0,1-.1.5c-.1.4-.2.7-.3,1.1a10.84,10.84,0,0,1-.8,1.9c-.1.2-.5.6-.5.8.1-.3.4-.5,0-.1-.2.2-1.1.8-.3.3a8.79,8.79,0,0,1-1,.6,10.91,10.91,0,0,0-1.1.6c-.5.3.5-.2-.1,0-.2.1-.5.2-.7.3a28,28,0,0,1-3.1.9,11.63,11.63,0,0,0-1.8.4c-.3,0-.6.1-.9.1s-1.1.2-.7.1a99.79,99.79,0,0,1-19.7.3,82.25,82.25,0,0,1-13.1-1.6c-.3-.1-.6-.1-.9-.2,0,0,.4.2.2.2s-.2-.2-.3-.2c-.4-.3-.9-.6-1.3-.9l-2.1-1.5c.4,1.4.7,2.7,1.1,4.1,2.5-4.2,3.8-9.9,1.8-14.5a13.39,13.39,0,0,0-3.6-4.6c-1.6-1.4-3.3-2.8-4.9-4.2s-3.2-2.7-4.8-4.1l-2.1,5.1a336.28,336.28,0,0,1,34.8-1.3,38.66,38.66,0,0,1,4.8.3c.3,0,.7.1,1,.1-.8-.1-.2,0,.2,0a5.73,5.73,0,0,1,1.4.4,3.07,3.07,0,0,0,3.7-2.1,3,3,0,0,0-2.1-3.7,26.33,26.33,0,0,0-7.4-.9c-3.6-.1-7.1-.1-10.7,0-7,.2-14,.5-21,1l-4.6.3a3,3,0,0,0-2.7,1.8,3.1,3.1,0,0,0,.6,3.3l4.1,3.5c1.5,1.2,2.9,2.5,4.4,3.7.8.7,1.6,1.3,2.3,2a6,6,0,0,1,.8.8c-.2-.3.3.5.3.6a5.4,5.4,0,0,1,.6,2.9,3.75,3.75,0,0,1-.1,1.1c0,.6.1-.4,0,.3s-.3,1.2-.4,1.8a10.41,10.41,0,0,1-.6,1.6c-.1.4-.2.5,0,.1l-.3.6c-.2.4-.4.7-.6,1.1a3.06,3.06,0,0,0,1.1,4.1c1.4,1,2.9,2.5,4.5,3,4.3,1.4,9.1,1.6,13.6,2a107.84,107.84,0,0,0,22-.1c4.7-.6,10.3-1.5,13.9-5a12.76,12.76,0,0,0,3.5-8.5c.2-3.6-1.6-6.8-3.8-9.5a29.71,29.71,0,0,0-9.6-7.7,69.26,69.26,0,0,0-9.9-3.7,2.91,2.91,0,1,0-1.6,5.6Z"/><path id="Vector_272" data-name="Vector 272" class="cls-4" d="M773.13,587.1a25.48,25.48,0,0,0-3.8,11.6c-.2,2.6-.7,7.6,1.7,11.7,3.4,5.8,10.7,6.7,22.2,8.1a110.48,110.48,0,0,0,21.3.3,37.66,37.66,0,0,0,14.9-3.7,12.37,12.37,0,0,0,4.7-3.8,10.32,10.32,0,0,0,1.9-6.8c-.3-3-2.4-5.2-5.5-7.9a46,46,0,0,0-19.4-10Z"/><path id="Vector_273" data-name="Vector 273" d="M770.53,585.5a31.4,31.4,0,0,0-4,21,14.93,14.93,0,0,0,4.9,9,19.85,19.85,0,0,0,8.3,3.9,76.91,76.91,0,0,0,11.7,1.8c3.5.4,7.1.7,10.7.8,4.4.1,8.7-.1,13-.4a42.09,42.09,0,0,0,12.1-2.5c3.9-1.5,7.6-3.5,9.8-7.2a12,12,0,0,0,.8-11.6c-1.5-3.1-4.5-5.6-7.2-7.7a50.89,50.89,0,0,0-8.3-5.3,58.93,58.93,0,0,0-5.8-2.4,21.39,21.39,0,0,0-5.5-1.5h-2.1c-3.9,0-7.8.1-11.7.2-7.9.1-15.8.1-23.7.3H773c-3.9,0-3.9,6,0,6,6.2-.1,12.4-.2,18.7-.2,4.3-.1,8.6-.1,12.9-.2,2.1,0,4.3-.3,6.4-.1h-.3a8.33,8.33,0,0,0,1.5.4c1,.3,2.1.6,3.1,1a37.6,37.6,0,0,1,4.6,2c1.4.7,2.7,1.5,4,2.3.5.4,1.1.7,1.6,1.1.3.2.5.4.8.6.1.1.5.3,0,0,.1.1.3.2.4.3,1.1.9,2.2,1.8,3.2,2.8a11.9,11.9,0,0,1,1.9,2s.3.4.4.5a5.44,5.44,0,0,1,.4.8,6.09,6.09,0,0,1-.2,4.2,8.32,8.32,0,0,1-1.7,2.6c-2.5,2.5-6.6,3.7-10,4.5a67.34,67.34,0,0,1-11.1,1.2,121,121,0,0,1-21.7-1.2,47.51,47.51,0,0,1-9.1-1.9l-.9-.3c.5.2-.1-.1-.3-.1a9.5,9.5,0,0,1-1.7-1,3.45,3.45,0,1,0-.3-.2,2.65,2.65,0,0,1-.6-.5l-.6-.6a1.38,1.38,0,0,1-.3-.4c-.3-.3.3.4,0,0-1.9-2.7-2.2-5.8-2.1-8.9a34.41,34.41,0,0,1,.5-4.5,18.24,18.24,0,0,1,.7-2.5c.1-.4.3-.8.4-1.2a4.18,4.18,0,0,0,.3-.9c.5-1.1,1.1-2.2,1.7-3.3C777.73,585.3,772.53,582.2,770.53,585.5Z"/><path id="YS-2" data-name="YS" class="cls-10" d="M796.83,265.2l8.4-16.3h6.3l-11.9,21.9v13.8h-5.9V271l-11.8-22h6.3Zm40.1,9.7a9.23,9.23,0,0,1-3.4,7.5c-2.3,1.8-5.5,2.7-9.5,2.7a22.13,22.13,0,0,1-9.9-1.9v-5.5a22.84,22.84,0,0,0,5.2,1.8,24.85,24.85,0,0,0,5.1.7c2.3,0,4-.4,5.1-1.3a4.4,4.4,0,0,0,1.7-3.5,4.48,4.48,0,0,0-1.5-3.4,24.85,24.85,0,0,0-6.2-3.3,16.48,16.48,0,0,1-6.9-4.5,9.72,9.72,0,0,1-2-6.1,8.51,8.51,0,0,1,3.2-7,13.26,13.26,0,0,1,8.5-2.6,25,25,0,0,1,10.2,2.2l-1.9,4.8a23,23,0,0,0-8.5-2,6.68,6.68,0,0,0-4.3,1.2,3.93,3.93,0,0,0-1.5,3.2,4.75,4.75,0,0,0,.6,2.4,5.72,5.72,0,0,0,1.9,1.9,27.22,27.22,0,0,0,4.8,2.3,24.79,24.79,0,0,1,5.8,3.1,9.08,9.08,0,0,1,2.7,3.2A10,10,0,0,1,836.93,274.9Z"/><path id="Vector_274" data-name="Vector 274" class="cls-2" d="M770.43,224.8l-.6,1.8c-17.2,46.8-19.2,77-26.5,91.4-7.5,14.8-26.6-27.4-29.71-48.9s16.61-85,34.21-94.7a104.08,104.08,0,0,1,9.8-7.3,90.61,90.61,0,0,1,35.1-12.8c.8-.3,1.9-.7,3.2-1.1a55.37,55.37,0,0,1,20.9-2.4c14.2,1.1,29.6,11.3,34.3,15,20.1,15.9,34.5,59.9,31.5,115.8q.45,46.5.9,93.1a140.7,140.7,0,0,1-51.9,14.2c-40.5,2.9-70.9-12.7-82.6-19.5-1.5-30.4-1.06-29-2.56-59.4"/><path id="Vector_276" data-name="Vector 276" class="cls-3" d="M758.57,386.93c-.85-5.57,14.64-15.16,21.34-15.27,1.17,0,2.34-.05,3.74,0a50.06,50.06,0,0,1,20.65,10.27c4.48,3.85,10.21,8.72,10.31,16a13.46,13.46,0,0,1-2,7.3c-5.24,8.12-19,10-26.21,5.68a11.27,11.27,0,0,1-1.6-1.1,40.53,40.53,0,0,1-9.34-9.27l-5.55-4.4C769.81,396.11,759.38,392.4,758.57,386.93Z"/><path id="Vector_278" data-name="Vector 278" class="cls-2" d="M716.59,349.43c7.11,7.31,44.2,48.47,44.2,48.47l32.41-27.76s-49.07-52-55.68-56.7c0,0-4,11.53-6.89,15.7s-14,20.29-14,20.29"/><text class="cls-6" transform="translate(807.19 296.37)">NB</text><path id="Vector_55" data-name="Vector 55" class="cls-4" d="M813.82,170.8a64,64,0,1,0-64-64A64.06,64.06,0,0,0,813.82,170.8Z"/><path id="Vector_56" data-name="Vector 56" d="M874.82,106.8a60.77,60.77,0,0,1-11.4,35.5,62.11,62.11,0,0,1-28.5,21.8,60.67,60.67,0,0,1-37.9,1.4,61.46,61.46,0,0,1-30.4-19.9,63.87,63.87,0,0,1-9.3-15.4,61,61,0,0,1-4.4-18.4,62.06,62.06,0,0,1,1.5-19.3,59,59,0,0,1,7.1-17.2,61.07,61.07,0,0,1,64.3-28.2,60.56,60.56,0,0,1,31.9,17.6,61.59,61.59,0,0,1,10.6,15A63.5,63.5,0,0,1,874,97.6a44.41,44.41,0,0,1,.8,9.2c0,3.9,6,3.9,6,0A67,67,0,1,0,786,167.7a67,67,0,0,0,94-50.4,74.23,74.23,0,0,0,.8-10.5C880.92,102.9,874.92,102.9,874.82,106.8Z"/><path d="M805.79,63.88a3.25,3.25,0,0,0,1,1.12l.26.19a2.81,2.81,0,0,0,1.09-.61C807.47,64.36,806.68,64.13,805.79,63.88Z"/><path d="M891.92,92.5a52.8,52.8,0,0,0-5.3-20.6,99.67,99.67,0,0,0-5.5-8.8c-1.7-2.5-3.4-4.9-5.3-7.2a63.68,63.68,0,0,0-25.5-19.2,156.28,156.28,0,0,0-15-5.2c-6.4-2-12.8-2.8-19.3-1.2a27.56,27.56,0,0,0-5.5,1.9,1.86,1.86,0,0,0-.6.38,3.76,3.76,0,0,0-1.2-.28c-18.8-1.6-38.5,4.9-51,19.3a52.4,52.4,0,0,0-11.9,23.6c-1.8,9-1.2,18.5-.6,27.6.36,6.78,1,13.61,1.29,20.45a36.3,36.3,0,0,0-.29,8.65,3.08,3.08,0,0,0,3,3,3.13,3.13,0,0,0,2.07-.87,2.73,2.73,0,0,0,1.43-2.53c0-2.67-.08-5.33-.2-8,.13-.81.3-1.61.5-2.4a28.07,28.07,0,0,1,1.6-4.9c.8-1.7,1.8-3.4,2.6-5.1,1.2-2.5,2.1-5.1,3.1-7.7s2-5.1,2.8-7.8c.3-1.2.5-2.5.8-3.8.2-.7.4-1.4.6-2l.3-.9c0-.1.4-.9.2-.6a23.22,23.22,0,0,1,2.9-4.9l.3-.3a5,5,0,0,1,.7-.8,66,66,0,0,1,6-5.8,100.5,100.5,0,0,1,7.8-6.6,24.28,24.28,0,0,1,11-4.5,65.19,65.19,0,0,1,12.5-.1,2.24,2.24,0,0,0,.86-.11c1.7,1.26,3.25,2.72,5.34,3,2.4.4,4.5-.6,6.6-1.6a24.42,24.42,0,0,0,5.14-2.88c3.09,1,6.14,2.06,9.26,2.88,1.3.3,2.6.5,3.9.9.23.08.52.15.78.23-.4-.12.65.29.92.47.7.4,1.3.8,1.9,1.2l.14.12.08.06h0l0,0s0,0,0,0h0l0,0a2.63,2.63,0,0,1,.28.25c.4.4.9.7,1.3,1.1,1.6,1.5,3.1,3.1,4.5,4.7,1.7,2,2.8,3.5,4.3,5.5s3.1,4.3,4.6,6.5c3.1,4.5,6.1,9,9.2,13.5a117,117,0,0,0,10.1,13.1,2.74,2.74,0,0,0,1.64.9c-1.11,6.91-4.13,20.89-11.24,28.8a112.11,112.11,0,0,1-7.93,8.46l11.7,2.46a2.58,2.58,0,0,0,0,1.48c.4,1.4,2.2,2.7,3.7,2.1,1.2-.5,2.7-.9,3.6-2a3.17,3.17,0,0,0,.07-3.66,2.32,2.32,0,0,1,.23-.44,18.58,18.58,0,0,1,1.1-1.9c.3-.5.8-1.2,1-1.5a37,37,0,0,0,5.3-7.8,56.42,56.42,0,0,0,3.1-8.1c1.9-6.6,2.6-13.5,3.3-20.4A124.15,124.15,0,0,0,891.92,92.5ZM813.47,62.06h0l.2.05A.64.64,0,0,1,813.47,62.06Zm59.39,90.28h0l-.11,0C873.2,151.9,873.12,152.19,872.86,152.34Zm2.06-.74a.79.79,0,0,1,.24,0h0l.07,0C874.86,151.64,874.31,151.68,874.92,151.6Z"/><path d="M808.17,64.58a2.81,2.81,0,0,1-1.09.61l-.26-.19a3.25,3.25,0,0,1-1-1.12C806.68,64.13,807.47,64.36,808.17,64.58Z"/><path d="M849.09,42.58l0,0-.1-.05Z"/><path d="M787.22,103a.25.25,0,0,1,0,.08S787.22,103,787.22,103Z"/><path d="M786,109.57l0,0s0-.07,0-.1A.17.17,0,0,1,786,109.57Z"/><path d="M786.08,106.57h0v0a.64.64,0,0,1-.06-.1.14.14,0,0,1,0-.06Z"/><path d="M786.6,107.38l0,0h0a0,0,0,0,0,0,0A.13.13,0,0,1,786.6,107.38Z"/><path d="M787.09,103.15a.61.61,0,0,1-.05.12s0,0,0,0l0-.06A.08.08,0,0,0,787.09,103.15Z"/><path d="M787.35,108a.78.78,0,0,1-.23-.07Z"/><path d="M787.41,108h0Z"/><path d="M787.52,108.1l0-.1h0S787.52,108.07,787.52,108.1Z"/><path d="M788.13,108.13h0C788.43,108.21,787.78,108.27,788.13,108.13Z"/><path d="M788.22,110c-.1-.3.4.3,0,0Z"/><path d="M788.48,110.2a.33.33,0,0,1-.16-.09h0A.32.32,0,0,1,788.48,110.2Z"/><path d="M788.56,110.18a.6.6,0,0,1-.21-.07A.64.64,0,0,1,788.56,110.18Z"/><path d="M788.52,108.4l-.06.1h-.14C788.42,108.4,788.42,108.4,788.52,108.4Z"/><path d="M790.32,110.7v.2C790.32,111.1,790.22,111.4,790.32,110.7Z"/><path d="M792,106.94a.09.09,0,0,1,0,0C792,106.85,792,106.76,792,106.94Z"/><path d="M792,106.93v.17a.71.71,0,0,0,0-.16Z"/><path d="M792.06,105.56v0h0Z"/><path d="M792.62,108.9l0,.07a.35.35,0,0,1-.06-.09Z"/><path d="M797.59,95a9.9,9.9,0,0,0-3.52-3h0c-2.37-1-6.12-1.09-8,1a4.27,4.27,0,0,0-.73,1.13,19.4,19.4,0,0,0-1.79,4.78,20.31,20.31,0,0,0,1.05,11.91,7.25,7.25,0,0,0,2.4,3.36,6.91,6.91,0,0,0,2.37,1.12,7.58,7.58,0,0,0,4.79-.37,7,7,0,0,0,1.11-.56,11.21,11.21,0,0,0,.89-1c2.85-3.54,2.73-7.9,2.51-13.39C798.52,96.81,798.16,95.8,797.59,95Z"/><path d="M832.35,99.38l.5-.07A3.76,3.76,0,0,0,832.35,99.38Zm-.13,0-.31.14C832,99.49,832.15,99.48,832.22,99.4Zm-.33.15h0a2.87,2.87,0,0,0-.39.16A2,2,0,0,1,831.89,99.55Z"/><path d="M834.82,93.5a5.6,5.6,0,0,0-.71-.07,4.22,4.22,0,0,0-.71,0,4.08,4.08,0,0,0-.58-.06h-.7a7.72,7.72,0,0,0-1.5.2,11.92,11.92,0,0,0-2,.8,3,3,0,0,0-.8.8l-.21.25A20.27,20.27,0,0,0,826,97.8a14.74,14.74,0,0,0-1.5,10.5,10,10,0,0,0,5.6,7,6.14,6.14,0,0,0,5.6-.1,7.29,7.29,0,0,0,3-3.9,11.7,11.7,0,0,0,.51-1.75,20.15,20.15,0,0,0,.39-2.35,19.63,19.63,0,0,0-.11-7C838.41,95.56,835.37,93.58,834.82,93.5Z"/><path d="M831.92,103.81a.21.21,0,0,0-.08.06l.08-.15Z"/><path d="M833.42,110.13l.1,0Z"/><path d="M831.52,99.7a2.87,2.87,0,0,1,.39-.16h0A2,2,0,0,0,831.52,99.7Z"/><path d="M831.91,99.54l.31-.14C832.15,99.48,832,99.49,831.91,99.54Z"/><path id="Vector_64" data-name="Vector 64" d="M803.32,82.9c-1.3-1.9-3.5-2.7-5.6-3.5a49.14,49.14,0,0,0-6.6-1.7,17.89,17.89,0,0,0-8.9-.1,25.77,25.77,0,0,0-8.2,3.9,3.16,3.16,0,0,0-1.1,4.1,3.09,3.09,0,0,0,4.1,1.1,20.68,20.68,0,0,1,6.1-3.1,12.23,12.23,0,0,1,6.3,0,50.71,50.71,0,0,1,5.6,1.3,13.77,13.77,0,0,1,2,.8,4.67,4.67,0,0,0,1,.5c.1,0,.1.1.2.1s.1.1,0,0-.2-.1-.1,0,.1.1-.2-.3a3.06,3.06,0,0,0,4.1,1.1C803.52,86.2,804.22,84.2,803.32,82.9Z"/><path id="Vector_65" data-name="Vector 65" d="M823.82,80.8c-.5.1-.9.1-1.4.2s.7,0,.1,0c-.4,0-.5-.1.4.1.4.3.9.5,1.3.8.3,1,.5,2,.8,2.9-.3.4-.5.9-.8,1.3-.7.7-.2.2.3,0,.3-.1.6-.3.9-.4a24.54,24.54,0,0,1,2.9-.8,17.34,17.34,0,0,1,5.1-.2,47,47,0,0,1,5.1,1.2l6.2,1.8a3,3,0,0,0,3.7-2.1,3.07,3.07,0,0,0-2.1-3.7c-4.6-1.4-9.3-3.2-14.2-3.4a20.42,20.42,0,0,0-7,.9c-1.9.5-5.2,1.4-5.8,3.7a3.09,3.09,0,0,0,.8,2.9,3.44,3.44,0,0,0,2.7.9,5.85,5.85,0,0,0,1.3-.2c.3,0,1.2-.2-.1,0a3.08,3.08,0,0,0,3-3C826.82,82.3,825.42,80.6,823.82,80.8Z"/><path id="Vector_66" data-name="Vector 66" d="M803.32,129.5a30.71,30.71,0,0,0,4.7,4.1,9,9,0,0,0,6.6,1.1A10.85,10.85,0,0,0,818,133a42.91,42.91,0,0,0,4.8-3.6,3,3,0,0,0-4.2-4.2c-.4.3-.7.6-1.1.9l-.1.1a1.76,1.76,0,0,0-.5.4c-.6.4-1.1.8-1.7,1.2a17.39,17.39,0,0,1-1.8,1.1c-.1,0-.2.1-.3.2-.4.2.7-.2.4-.1-.1,0-.2.1-.3.1-.3.1-.1,0,.1,0h-.7c-.3,0,.5.1-.1,0a1.27,1.27,0,0,0-.6-.1c-.3-.1-.4-.1,0,0a2.62,2.62,0,0,1-.9-.5c-.1,0-.5-.3-.2-.1s-.3-.3-.3-.3l-.9-.9c-.6-.6-1.2-1.2-1.9-1.8a3,3,0,0,0-4.2,0A2.79,2.79,0,0,0,803.32,129.5Z"/><path id="Vector_67" data-name="Vector 67" d="M829.22,142c-4.8,3.5-11.3,3.1-17,3.1-6,0-12.1-.8-17.2-4.1a3,3,0,1,0-3,5.2c6,4,13.2,4.9,20.2,5,6.7,0,14.4.2,20-3.9a3.19,3.19,0,0,0,1.1-4.1A3,3,0,0,0,829.22,142Z"/><path d="M849.12,42.6l-.1-.05.07,0,0,0Z"/><path d="M857.72,152.4l.27.06C857.41,152.92,857.72,152.4,857.72,152.4Z"/><path d="M820.22,61.6a3,3,0,0,1-.38-1.53A3.88,3.88,0,0,0,820.22,61.6Z"/><path id="Vector_69" data-name="Vector 69" d="M770.72,159.7c-6.3,1.4-8.9,9.1-9.2,15.5-1.3,30.6,21.8,57.5,24,88,.9,12.8-2,25.5-4.1,38.2-2.5,15.1-4,30.6-1.3,45.7,1.9,10.4,5.8,21.3,2.1,31.2a54,54,0,0,0-12.1-12.7l-.9,5.4a6.18,6.18,0,0,0-4-2.2,17.4,17.4,0,0,0-1.2,11c-8.9-12.2-9.9-28.5-7.8-43.4s7-29.4,8.6-44.4a104.71,104.71,0,0,0-2.3-35.7c-4.8-19.9-15.4-38-20.8-57.8-2.7-10-4.1-20.7-1.6-30.8s9.5-19.5,19.3-22.8Z"/><path d="M792.82,302.3a99.17,99.17,0,0,0,1.7-24.3,146.3,146.3,0,0,0-3.6-24.5c-3.6-15.8-9.2-31.1-13.6-46.7-4.2-14.9-8-30.9-5-46.4a52.77,52.77,0,0,1,1.34-5.41l.06-.19a2.37,2.37,0,0,0-.78-2.78h0v0a3,3,0,0,0-4.2,0l-.92.82c-2.3-3-4.61-6-6.88-9a1.62,1.62,0,0,0-1.7-.7,30.42,30.42,0,0,0-15.6,12.9,42.56,42.56,0,0,0-6.1,21.7c-.3,17.2,6.9,33.7,13.4,49.3,3.2,7.9,6.5,15.8,8.9,23.9a107.09,107.09,0,0,1,4.3,26.4,118.76,118.76,0,0,1-2.5,26.6c-1.8,8.8-4.1,17.5-5.7,26.3-2.7,15-3.3,31.4,4.1,45.2a43.12,43.12,0,0,0,2.63,4.26c0,.11.05.23.07.34l.13-.06c0,.09.11.17.17.26a1.49,1.49,0,0,0,2.7-1.2,15.94,15.94,0,0,1-.32-4.13A12.35,12.35,0,0,0,768,377.3a10.34,10.34,0,0,0,4.1,1.6l2.6.3c-.4,0,.9.1.6.1l.12,0,0,0,.06,0h0c.11.16.27.74.18.27a1.27,1.27,0,0,1,.1.6v.1a12.1,12.1,0,0,1,.1,1.9,9.93,9.93,0,0,0,1.3,5.1,3.16,3.16,0,0,0,4.1,1.1c5.7-3,7.8-9.3,8.4-15.3.3-3,.2-6,.2-9-.1-4.2-.3-8.5-.4-12.7-.3-8.4-.8-16.8-.4-25.1S791.32,310.3,792.82,302.3Zm-22.2-55.6a.13.13,0,0,1,0-.06,1,1,0,0,0,.09.46,1,1,0,0,1-.12-.25A.77.77,0,0,1,770.62,246.7Zm11.53,137.73a.75.75,0,0,0,.16-.15c0,.07.07.14.11.22Z"/><path d="M770.72,247.1a1,1,0,0,1-.12-.25.77.77,0,0,1,0-.15.13.13,0,0,1,0-.06A1,1,0,0,0,770.72,247.1Z"/><path d="M775.48,379.34h0l0,0Z"/><path d="M782.42,384.5l-.27-.07a.75.75,0,0,0,.16-.15C782.35,384.35,782.38,384.42,782.42,384.5Z"/></g><g id="aj"><path id="Vector_243" data-name="Vector 243" class="cls-1" d="M676.87,416.9s-2.8-21.5-4.2-24.6,0-11.6,0-11.6l17.8-4-7.1,6.4s-2.6,2.2-2.9,7.6.7,26.3.7,26.3h-4.3Z"/><path id="Vector_244" data-name="Vector 244" class="cls-11" d="M668.57,171.5q1.2,41.1,1,82.2-.15,42-1.8,84.1c-.6,15.1-1.4,30.2-2.3,45.3a3,3,0,1,0,6,0c1.7-27.4,2.8-54.8,3.5-82.2.7-28,.8-56,.5-84.1-.2-15.1-.5-30.2-.9-45.4C674.47,167.6,668.47,167.6,668.57,171.5Z"/><path id="Vector_375" data-name="Vector 375" class="cls-2" d="M687.08,173.1c-3-4.1-11.4-8.6-15-11-19.3-13.2-40.9-9.4-40.9-9.4s-19.8,2.5-39,20.4c-13.9,13-30.8,92.2-27.8,203.5a141.71,141.71,0,0,0,51.9,14.2c39.9,2.9,70.2-12.3,82.6-19.5"/><path id="Vector_377" data-name="Vector 377" class="cls-3" d="M578.09,591.2c-4.5.8-11.62,4.2-17.12,10-1.9,2-4.6,4.8-4.6,8.8.25,2.45,0,2.26.87,3.72,5.55,9,23.72,12.71,43.73,7l9.82-3.26"/><path id="Vector_379" data-name="Vector 379" class="cls-3" d="M630.28,588.68a61.11,61.11,0,0,0-13.41,7.49c-5.53,4.09-10.14,7.5-10.5,12.73a11.5,11.5,0,0,0,1.9,6.8,12.33,12.33,0,0,0,4.6,3.9,37.92,37.92,0,0,0,14.8,3.9,106.56,106.56,0,0,0,21.3,0c11.5-1.2,18.8-2,22.3-7.8,2.4-4,2-9.1,1.9-11.7-.4-5.5-3.23-11.3-4.43-13.4"/><path id="Vector_381" data-name="Vector 381" class="cls-4" d="M624.67,590.7v.1l-5.6,1c1.1-.5,2.1-.8,2.9-1.2A22.62,22.62,0,0,1,624.67,590.7Z"/><path id="Vector_383" data-name="Vector 383" class="cls-3" d="M625.17,589.7a26,26,0,0,1,7-.7c11.6,0,23.7,1,35.2,1l2.8-1a525.13,525.13,0,0,0-9-61.7c-4.6-22.5-6.6-24.9-6.8-36.7,0,0,0-34.5,15.9-62.7.1-.2,1.1-1.8,2.2-4.1,1-1.8,2-3.9,3.4-6.9A177.69,177.69,0,0,0,689,376.8l-15.5,6.6a150.47,150.47,0,0,1-109.2-2.8c-4.7,8.8-24.5,45.9-35.2,76.9-2.2,6.5-5,15.6-4.5,27.2a71.09,71.09,0,0,0,6.5,26.3c13.6,31.5,40.7,74.6,44.5,80.8,11.6-3,25.2-3.1,40-1a34.78,34.78,0,0,0,6.5-.2c.8-.3,1.6-.6,2.3-.8ZM587,481.5c2.7-14.1,6.4-26.3,15.9-36.5l2.7-10.7c-2.3,9.7-4.1,18.2-5.4,25.3-2.8,14.7-3.4,21.9-3.3,29.3a120.25,120.25,0,0,0,2.1,21.4c3.5,20.1,18.2,64.2,24,79.6l-17.3-44.8q-8.55-23.4-17.1-47a34.87,34.87,0,0,1-2.3-8.4A28.47,28.47,0,0,1,587,481.5Z"/><path id="Vector_402" data-name="Vector 402" class="cls-4" d="M683,381.6c-3.9-6.8-16.7-9.7-25.4-6.6-1.1.4-2.2.8-3.5,1.3-5.2,5.7-10.4,11.3-15.6,17-.5.7-7.4,9.5-3.9,18.6a13.6,13.6,0,0,0,4.5,6.1c9.3,6.7,25.7-3.6,26.5-4.1C676.87,406.7,688.37,390.9,683,381.6Z"/><path id="Vector_403" data-name="Vector 403" d="M685.53,379.9c-2.8-4.8-8.3-7.5-13.5-8.6a30.33,30.33,0,0,0-17.4,1.4,7.53,7.53,0,0,0-3,1.7c-.7.7-1.3,1.4-2,2.2-1.3,1.4-2.6,2.9-4,4.3-2.7,2.9-5.3,5.8-8,8.7a25.83,25.83,0,0,0-6.3,11.3,18.76,18.76,0,0,0,3.6,17.2c3.6,4.2,9.4,5.5,14.7,4.8a44.17,44.17,0,0,0,22-9.9,48.68,48.68,0,0,0,12.7-15.5c2.8-5.6,4.4-12.1,1.2-17.6-1.9-3.4-7.1-.4-5.2,3,.1.2.2.3.3.5.4.7-.1-.3.1.1s.2.7.3,1a5,5,0,0,1,.2,1.2h0v2.6a26.81,26.81,0,0,1-.7,2.7,29.71,29.71,0,0,1-5.6,9.9,44.51,44.51,0,0,1-13.8,11.8,8.86,8.86,0,0,1-1.7.8c-.3.2-.7.3-1,.5s-.3.1-.5.2-.8.4-.2.1a40.38,40.38,0,0,1-4.5,1.6c-.8.2-1.6.4-2.5.6a5.85,5.85,0,0,1-1.3.2c-.1,0-.6.1-.1,0a1.7,1.7,0,0,0-.7.1,20.9,20.9,0,0,1-2.5.1,5.11,5.11,0,0,1-2.1-.3l-1.1-.3s-.8-.3-.4-.2-.2-.1-.3-.1a7.71,7.71,0,0,1-2.1-1.4,7.88,7.88,0,0,1-1.7-2c-.2-.3-.4-.7-.6-1s-.6-1.3-.2-.5c-1.5-3.9-1.2-7.4.3-11.3-.1.4,0-.1.1-.1a3,3,0,0,1,.4-.8l.6-1.2c.4-.6.8-1.3,1.2-1.9.1-.2.3-.4.4-.6s.5-.7.1-.2c-.5.7.6-.6.7-.7.5-.5,1-1.1,1.5-1.6l13.2-14.4c-.4.3-.9.5-1.3.8,1.5-.6,3-1.2,4.5-1.7a11.63,11.63,0,0,1,1.8-.4c.5-.1,1.3-.2,1.4-.2a24.31,24.31,0,0,1,7.2.2,21,21,0,0,1,6.4,2.2,14,14,0,0,1,1.6,1s.6.5.4.3.3.3.4.3l1.2,1.2c.4.5-.2-.3.2.3.1.2.3.5.4.7C682.33,386.2,687.53,383.2,685.53,379.9Z"/><path id="Vector_399" data-name="Vector 399" class="cls-2" d="M659,204.7a114.19,114.19,0,0,0,5.8,20.9c17.2,46.8,19.2,77,26.5,91.4,7.5,14.8,43.1,22.4,46.1.9s-33.1-134.8-50.6-144.5"/><path id="Vector_404" data-name="Vector 404" class="cls-2" d="M736.08,321.1c-5.2,7.8-45.4,66.5-45.4,66.5l-42.8-15s36.2-55.9,40.1-62.6"/><text class="cls-6" transform="translate(592.31 296.87)">AJ</text><path id="Vector_222" data-name="Vector 222" class="cls-4" d="M640.42,169.25a64,64,0,1,0-64-64A64.06,64.06,0,0,0,640.42,169.25Z"/><path id="Vector_223" data-name="Vector 223" d="M701.42,105.25a60.77,60.77,0,0,1-11.4,35.5,62.11,62.11,0,0,1-28.5,21.8,60.67,60.67,0,0,1-37.9,1.4,61.46,61.46,0,0,1-30.4-19.9,63.87,63.87,0,0,1-9.3-15.4,61,61,0,0,1-4.4-18.4A62.06,62.06,0,0,1,581,91a59,59,0,0,1,7.1-17.2,61.07,61.07,0,0,1,64.3-28.2A61.31,61.31,0,0,1,695,78.15a63.5,63.5,0,0,1,5.7,17.9,66.14,66.14,0,0,1,.7,9.2c0,3.9,6,3.9,6,0a67,67,0,1,0-94.8,60.9,66.91,66.91,0,0,0,76.2-14.6,67,67,0,0,0,17.8-35.8,74.23,74.23,0,0,0,.8-10.5C707.42,101.45,701.42,101.35,701.42,105.25Z"/><path d="M622.62,98a11.8,11.8,0,0,0-5.43-1.33A15.37,15.37,0,0,0,604.92,100a12.74,12.74,0,0,0-2.5,2.7c-1.3,2-.7,4,.9,5.7a12.76,12.76,0,0,0,7,3.8,16.87,16.87,0,0,0,8.68-.62l.52-.18c.52-.18,1.05-.37,1.57-.59,2.38-1,4.63-2.45,5.53-4.91C627.82,102.46,625.52,99.46,622.62,98Z"/><path d="M616.79,104.79l.13.07h-.3s0,0,0,0a.75.75,0,0,0-.07-.12l.18.1s0,0,0,0h.06l0,0s0,0,.05,0l-.05,0Z"/><path d="M621.09,110.77a9.71,9.71,0,0,1-2.09.77l.52-.18C620,111.18,620.57,111,621.09,110.77Z"/><path d="M674.62,102.06a5.56,5.56,0,0,0-2.41-2.3,3.13,3.13,0,0,0-.89-.8,19.87,19.87,0,0,0-15.8-1.8c-2.9.9-6.2,2.9-6,6.4.2,3.1,2.8,4.9,5.3,6.3s5.4,1.5,8.3,1.4c1.2,0,2.4,0,3.6-.1a13,13,0,0,0,4.7-1.5C674.12,108.26,676.12,105.06,674.62,102.06Z"/><path d="M666.3,105.47h0Z"/><path d="M667.5,104.4a.75.75,0,0,0,.06.13l-.09,0Z"/><path id="Vector_226" data-name="Vector 226" d="M627.12,129.25a27,27,0,0,0,5.7,3.8c2.3,1.1,4.9,2.3,7.5,2.3a14.06,14.06,0,0,0,6.9-2.2,18.78,18.78,0,0,0,5.1-4.2,3.09,3.09,0,0,0,0-4.2,3,3,0,0,0-4.2,0,13,13,0,0,1-3.6,3.1,8.92,8.92,0,0,1-4.2,1.5,11.88,11.88,0,0,1-4.6-1.5,20,20,0,0,1-4.3-2.8,3.09,3.09,0,0,0-4.2,0A2.82,2.82,0,0,0,627.12,129.25Z"/><path id="Vector_227" data-name="Vector 227" d="M658.32,139.65a36.1,36.1,0,0,1-28,3.4,37,37,0,0,1-8.6-3.2c-3.4-1.9-6.4,3.3-3,5.2a43.27,43.27,0,0,0,9.8,3.8,45,45,0,0,0,10.9,1.7,46.6,46.6,0,0,0,21.9-5.6C664.82,143,661.82,137.85,658.32,139.65Z"/><path id="Vector_228" data-name="Vector 228" d="M626,84.85c-5.6-1.5-11.5-1.3-17.2-1.5-1.4,0-2.8-.2-4.1-.2a34.41,34.41,0,0,0-4.5.5c-1.6.2-2.5,2.3-2.1,3.7a3.07,3.07,0,0,0,3.7,2.1c.2,0,.5-.1.7-.1s.7-.1.2,0,.5-.1.6-.1a7.57,7.57,0,0,1,1.5-.1c1.3,0,2.7.1,4,.1,5.3.1,10.5-.1,15.6,1.3C628.22,91.55,629.82,85.75,626,84.85Z"/><path id="Vector_229" data-name="Vector 229" d="M675.22,83.55a73.62,73.62,0,0,0-11.5-.2,135.73,135.73,0,0,0-14.3,1.4c-1.6.2-2.5,2.2-2.1,3.7a3.07,3.07,0,0,0,3.7,2.1,111.84,111.84,0,0,1,13.1-1.2,58.68,58.68,0,0,1,11.1.2c1.6.2,3-1.5,3-3A3.08,3.08,0,0,0,675.22,83.55Z"/><path id="Vector_230" data-name="Vector 230" d="M619.12,54.65c3.6,3.8,8.9,4.6,13.8,2.8a5.94,5.94,0,0,1,2.6-.7c1.2.1,2.3.9,3.5,1.1a29.79,29.79,0,0,0,7.3.9c4.6.1,9.3-.5,13.9-.2a19,19,0,0,1,6.2,1.2c2.2.9,4,2.5,6,3.8,4.8,3.1,10.5,4.3,16,5.4a3.16,3.16,0,0,0,3.7-2.1,3,3,0,0,0-2.1-3.7c-4.6-.9-9.4-1.8-13.5-4.2-2.1-1.2-4-2.9-6.2-4a19.58,19.58,0,0,0-6.6-2.1c-4.6-.7-9.3-.3-14-.2a36.42,36.42,0,0,1-6.6-.2c-2.1-.3-4.1-1.2-6.2-1.7a9.36,9.36,0,0,0-4.7.4,18.19,18.19,0,0,1-3.3,1.1,6.36,6.36,0,0,1-5.4-2C620.62,47.65,616.42,51.85,619.12,54.65Z"/><path id="Vector_231" data-name="Vector 231" d="M621.52,51c-1.9.2-3.8-1-5.9-.8-2.3.2-4.3,1.4-6.4,2.4-3.7,1.8-8,1.9-12,1.7a3,3,0,0,0-3,3,3.08,3.08,0,0,0,3,3,32.24,32.24,0,0,0,13.1-1.7c1-.4,2-.9,3-1.4a8.08,8.08,0,0,1,2.7-1.1,4.33,4.33,0,0,1,1.9.4,8.24,8.24,0,0,0,3.5.4,3.08,3.08,0,0,0,3-3A2.9,2.9,0,0,0,621.52,51Z"/><path id="Vector_232" data-name="Vector 232" d="M699.82,66.85l-.2-.4-.1-.4c.1.6,0-.2,0-.5,0-.8-.1.3,0-.1a1.7,1.7,0,0,0,.1-.7c.1-.5.3-.9.4-1.4.6-1.8,1.5-3.5,2-5.3a8.85,8.85,0,0,0-.6-6.4,14.65,14.65,0,0,0-4.9-5c-3.5-2.5-7.8-4-10.8-6.8a18.1,18.1,0,0,0-3-2.5,11.57,11.57,0,0,0-4.5-1.2,11,11,0,0,1-1.8-.2,1.9,1.9,0,0,1-.9-.3,7.7,7.7,0,0,1-2.2-1.9c-1.4-1.6-2.6-3.6-4.3-5.1a16.91,16.91,0,0,0-7-3.7c-5.7-1.5-11.5-.1-16.9,1.7a23.91,23.91,0,0,1-7.9,1.4c-2.9,0-5.9-.2-8.8.6a37.3,37.3,0,0,0-6.9,3.5,9.87,9.87,0,0,1-2.8,1.2,14.82,14.82,0,0,1-4.2.2c-6,0-10.8,2.7-14.9,7a55.94,55.94,0,0,0-5.2,6.6c-1.8,2.6-3.5,5.3-3.5,8.6,0,3.9,6,3.9,6,0,0-2.1,1.6-4,2.8-5.7s2.6-3.5,4-5.1c2.9-3.1,6.1-5.3,10.3-5.4a22,22,0,0,0,8.4-1.2c2.1-.9,3.9-2.2,5.9-3.3a13.61,13.61,0,0,1,6.9-1.1,28.82,28.82,0,0,0,8.3-.6c5-1.3,9.7-3.6,15-3a12.11,12.11,0,0,1,5.8,2.2,21.17,21.17,0,0,1,3.9,4.6,14.15,14.15,0,0,0,5.4,4.3,13.53,13.53,0,0,0,3.6.7,5.92,5.92,0,0,1,2.9.7c.8.6,1.5,1.5,2.3,2.1a19.41,19.41,0,0,0,2.9,2.1c1.8,1.1,3.7,2.1,5.5,3.1a28.23,28.23,0,0,1,2.9,1.8,14.48,14.48,0,0,1,1.8,1.7c.1.2.3.4.4.6,0,0,.4.9.2.3a.9.9,0,0,1,.1.5c.2.6.1-.4,0,.2v.5c0,.7.2-.4-.1.3a7.37,7.37,0,0,1-.4,1.4c-1.4,4.1-3.9,8.1-1.4,12.3C696.62,73.15,701.72,70.15,699.82,66.85Z"/><path id="Vector_233" data-name="Vector 233" d="M696.12,54.45c.1,1.3.1,2.6.1,4,0,.6-.1,1.1-.1,1.7,0,.4-.1.8-.1,1.1,0,.1-.1.9,0,.3a38.31,38.31,0,0,1-1.9,7.4c1.7-.4,3.3-.9,5-1.3-.5-.4.3.5,0,0,.1.2.2.5.1.1s.1.7,0,0v-.5a7.39,7.39,0,0,0-.9-3.3,8.06,8.06,0,0,0-1.2-1.4c-.1-.2-.3-.3-.4-.5.4.4,0,0-.1-.2a17.61,17.61,0,0,0-1.4-2.3c-1.5-2.2-3.9-3.6-6.6-2.9-2.1.6-3.5,2.5-4.4,4.3a3,3,0,0,0,5.2,3,4.05,4.05,0,0,1,.5-.9c.1-.2.2-.3.3-.5.3-.4,0,.1-.1.1s.3-.4.4-.4c.2-.3-.6.4,0,0,.3-.2,0,0-.2.1.5-.2-.5,0-.1,0s-.7,0-.5-.2l.4.2c-.3-.2-.2-.2,0,.1.1,0,.4.4.2.1s.1.2.2.3a.76.76,0,0,1,.2.4c.2.4.4.7.6,1.1a11.22,11.22,0,0,0,1.6,2.2l.4.4c.5.5-.2-.3.1.1s-.1-.6,0-.1l.1.4s-.1-.7,0-.1v.5c.1.5.1,1,.2,1.5a4.45,4.45,0,0,0,1.4,2.5,3,3,0,0,0,5-1.3,38.38,38.38,0,0,0,2.2-16.1,3,3,0,0,0-3-3C697.62,51.55,696,52.85,696.12,54.45Z"/><path id="Vector_234" data-name="Vector 234" d="M599.52,59.05a16.5,16.5,0,0,1-1.4,4.8,8.2,8.2,0,0,1-3.2,3.2,19.24,19.24,0,0,0-4.4,3.6,18,18,0,0,0-2.8,5.3,102,102,0,0,1-4.1,10.4c-1.9,3.7-4,7.2-6,10.8a40.8,40.8,0,0,0-4.8,13,3,3,0,1,0,5.8,1.6c1.3-8,6.2-14.6,9.9-21.7a73.17,73.17,0,0,0,4.6-11.2,18.89,18.89,0,0,1,1.8-4.1,13,13,0,0,1,3.9-3.1,13.78,13.78,0,0,0,4.5-4.8,28,28,0,0,0,2-6.2,3.16,3.16,0,0,0-2.1-3.7A3,3,0,0,0,599.52,59.05Z"/><path id="Vector_235" data-name="Vector 235" d="M601.42,40.45a46.51,46.51,0,0,0-11.5,7.5,61.55,61.55,0,0,0-10,10.4c-3.1,4.1-4.3,9-5.5,13.9a108,108,0,0,0-3,17,70.62,70.62,0,0,0-.1,9.2,24.92,24.92,0,0,0,2.6,9.1,3,3,0,1,0,5.2-3c-2.1-4.5-2-8.6-1.8-13.6a82.09,82.09,0,0,1,2.5-15.5c1-4.4,1.9-8.9,4.3-12.6a4.44,4.44,0,0,1,.8-1.1s.5-.7.3-.4.4-.5.3-.4l2.1-2.4c1.6-1.7,3.2-3.3,4.9-4.8,1.9-1.7,3.6-3,5.5-4.4.9-.6,1.8-1.2,2.8-1.8.5-.3.9-.5,1.4-.8.2-.1,1.5-.7.8-.4a3.07,3.07,0,0,0,2.1-3.7C604.72,41.15,602.92,39.85,601.42,40.45Z"/><path id="Vector_237" data-name="Vector 237" d="M680.22,66.15c1.8,2.9,3.6,5.7,5.5,8.6a22.81,22.81,0,0,0,6.2,6.9,13.24,13.24,0,0,1,2.9,2.4,23.29,23.29,0,0,1,2,3.4c1.4,3,2.7,6.1,4,9.2.6,1.5,2.8,1.8,4.1,1.1a3.16,3.16,0,0,0,1.1-4.1c-1.3-3.1-2.6-6.2-4-9.2a16.27,16.27,0,0,0-5.7-7,17.55,17.55,0,0,1-3-2.4,25.2,25.2,0,0,1-2.4-3.3c-1.8-2.9-3.6-5.7-5.5-8.6a3.09,3.09,0,0,0-4.1-1.1A3,3,0,0,0,680.22,66.15Z"/><path id="Vector_239" data-name="Vector 239" d="M700.22,72.35l-10.5-10.2-5.9,4.1,8.7,12.2Z"/><path id="Vector_240" data-name="Vector 240" d="M688.22,65.35s-6.3.7-19.6-7.7-19.4-1.3-19.4-1.3l-15.8-2.8a9.32,9.32,0,0,1-9.1,1.7c-5.1-1.9-14-.4-17.6,1.3s-5.8,9.6-5.8,9.6l-9.2,7.9s-8,22.8-12.8,27-4.8-7.5-4.8-7.5,1.8-27.2,7.9-33.3,18.9-17.1,18.9-17.1,9.8-7.5,17-6.8c7.3,1,12.3-5,12.3-5l14.4-1.3s16.5-5.3,23,1.5a39.51,39.51,0,0,0,15.1,9.6l16,12-2.5,14.2Z"/></g><g id="es"><path id="Vector_407" data-name="Vector 407" class="cls-3" d="M1005,584.45c2.7-4.7,6.5-11.6,11.1-20.1,6.7-12.4,11.6-22.3,21.1-41.6,10.9-22.2,12.9-26.8,12.3-34-.7-8.4-2.7-14.2-7.7-21.8-3.6-5.4-6.6-13-12-20-6.6-8.5-10.2-16.8-20-27l14.6,23.8,20.4,29.7s9.3,15.3,2.8,29.7-28.8,58.4-28.8,58.4l-12.1,23s20.4,6.7,17.6,17.2A141.23,141.23,0,0,1,1020,616a37.32,37.32,0,0,0,8.3,3.7c1.52.46,4.25,1.18,13.2,1.9,5.18.41,9.13.6,10.2.6,7.2,0,14.5.1,21.7-.4,10.1-.7,12.2-3.5,12.8-4.3a13.22,13.22,0,0,0,3-10.8c-1.4-7.4-10.1-11-18.6-14.4-7.3-2.9-47-6-62-6.2l53.7,3.4c8-13.3,13.5-22,17.6-28.7,8-13.1,15.2-26.7,23.2-39.9,7.2-11.8,12.2-19.9,12.2-31.4a37.16,37.16,0,0,0-2.9-13.5l-2.4-7.8-45.3-68.2-17-32c-10,7.2-23,16.3-52.9,19.4-40.1,4-69.9-13-79.9-19.3a118.59,118.59,0,0,0,9.5,33.2c3.9,8.6,8.4,15.1,17.4,28.1,14.8,21.3,20.5,26.1,26.9,41.2,2.5,5.9,4.4,10.5,5.6,17.2,3,17.9-2.9,32.8-6.2,41-5.7,13.9-10.7,17-20.7,40.4-1.2,2.8-2.2,5.1-2.8,6.7v-.5a139,139,0,0,0,.1,21.4,18.39,18.39,0,0,0,1.2,5,15.88,15.88,0,0,0,7.1,7.6,38,38,0,0,0,9.8,3.4,136.39,136.39,0,0,0,46.8,2.5,25.89,25.89,0,0,0,7.3-1.7,10.56,10.56,0,0,0,5.5-4.9,13.53,13.53,0,0,0,1-4.7,19.17,19.17,0,0,0,.1-4.2,12.26,12.26,0,0,0-2.8-5.7c-8.35-9.75-27.8-9.6-27.8-9.6l-48.63-1.79"/><path id="Vector_411" data-name="Vector 411" class="cls-2" d="M921.42,320.1c-.1,17.8.8,15.3,3.2,45a132.06,132.06,0,0,0,138.2-1.9c-2.2-29.8-3-54.5-3.4-72.1-1.2-61.1,2.4-87.8-14.2-106-5.4-5.9-21.5-20.3-39.9-24.1-5.8-1.2-14.9-2.9-38.9,1.1-3.6.6-14.8,4-27.3,12.2-2.3,1.5-4.1,2.9-5.4,3.9-17.3,10.3-49.9,124.6-46.2,146s39,12.7,46.1-2.3c6.9-14.6,7.9-44.8,23.7-92.2v-.1"/><path class="cls-3" d="M994,396.26s-5-9.07-14.43-6-18.25,4.46-17.61,15.06S975,431.74,975,431.74s3.12,4.47,11.54,0,12.53-8.85,13.56-7.54c3.76,4.78,7.17,4,8.7,2.5s-.68-6.6-.68-6.6Z"/><path id="Vector_413" data-name="Vector 413" class="cls-2" d="M889.5,300.33,888.42,307c-4.89,16.28,5.3,31.65,11.6,42.05s61.3,74.7,61.3,74.7l28.8-33.2A309.38,309.38,0,0,0,968,362.45q-.12-.13-26.5-34.62c-1.32-1.72-5-6.54-5.09-13,0-.72.64-3.36.67-3.76l1.22-4.09"/><text class="cls-6" transform="translate(985.94 296.37)">E<tspan class="cls-7" x="23.54" y="0">S</tspan></text><path id="Vector_13" data-name="Vector 13" class="cls-4" d="M998.72,178a64,64,0,1,0-64-64A64.06,64.06,0,0,0,998.72,178Z"/><path id="Vector_14" data-name="Vector 14" d="M1059.72,114a60.77,60.77,0,0,1-11.4,35.5,62.11,62.11,0,0,1-28.5,21.8,60.67,60.67,0,0,1-37.9,1.4,61.46,61.46,0,0,1-30.4-19.9,63.87,63.87,0,0,1-9.3-15.4,61,61,0,0,1-4.4-18.4,62.06,62.06,0,0,1,1.5-19.3,59,59,0,0,1,7.1-17.2,61.07,61.07,0,0,1,64.3-28.2,61.31,61.31,0,0,1,42.6,32.6,63.5,63.5,0,0,1,5.7,17.9,53.7,53.7,0,0,1,.7,9.2c0,3.9,6,3.9,6,0a66.62,66.62,0,0,0-12.3-38.6A67,67,0,0,0,931.92,109a67.12,67.12,0,0,0,39,66,67,67,0,0,0,94-50.4,74.23,74.23,0,0,0,.8-10.5C1065.72,110.17,1059.72,110.17,1059.72,114Z"/><path d="M983.32,102a4.81,4.81,0,0,0-.6-1.37,5,5,0,0,0-2.4-1.83,11,11,0,0,0-6.7-.8l-.15,0a9.22,9.22,0,0,0-1.32.74,10.7,10.7,0,0,0-3.45,4.47,22.79,22.79,0,0,0-1.9,9.22,13.33,13.33,0,0,0,.22,1.93,10.13,10.13,0,0,0,2.13,5.19c.13.15,2.71,2.94,6.17,2.41a7.7,7.7,0,0,0,4.49-2.85,15,15,0,0,0,3.45-7.79,22.81,22.81,0,0,0,.36-6.16A8,8,0,0,0,983.32,102Z"/><path d="M968.91,104.69l.05-.06a1.6,1.6,0,0,0-.05.21A.75.75,0,0,1,968.91,104.69Z"/><path d="M970.42,109.47l.24.24-.06.28c-.1-.22-.2-.44-.29-.66A1.34,1.34,0,0,0,970.42,109.47Z"/><path d="M970.48,99.76l.29-.28a2,2,0,0,0-.13.25Z"/><path d="M971,104.39c0-.14,0-.31-.07-.45a1.84,1.84,0,0,0,.15.36A.24.24,0,0,0,971,104.39Z"/><path d="M971.06,115c.12-.18.14-.21.06,0h0l-.1.19a.13.13,0,0,1,0-.08l0,0c-.09.15-.12.15,0,0l0,0Z"/><path d="M971.18,105.64a.09.09,0,0,1-.06,0v0Z"/><path d="M971.33,108.74a.09.09,0,0,1,0,.05l0,0-.1-.1.1,0v.1Z"/><path d="M971.58,108.52h0s0,0,0,0,0,0,0,0a.27.27,0,0,1-.12-.27.44.44,0,0,1,.08.11s0,0,.06.09Z"/><path d="M971.6,108.59a.13.13,0,0,1,0,.08.41.41,0,0,1,0-.08Z"/><path d="M971.81,111.19h0s0,0,0,0h0Z"/><path d="M971.8,109.52l0,0a.74.74,0,0,1,0-.12l0,0c0,.12,0,.13,0,.1a.43.43,0,0,1,0,.11s0,0,0,0A1.77,1.77,0,0,0,971.8,109.52Z"/><path d="M971.86,111.51c.07-.11,0-.08,0,0s0,0,0,0l0,0a0,0,0,0,1,0,0c-.08.08-.12.14,0,0l0,0h0Z"/><path d="M971.92,111.07s0,.06-.09.11S971.89,111.07,971.92,111.07Z"/><path d="M972,111.11s0,0,0-.07v0s0,0,0,0l0,0h0v0Z"/><path d="M972,110.57h0s0-.06,0-.09l0-.1v.2h0a.08.08,0,0,1,0,0Z"/><path d="M972,107.09s0,0,0,0h0s0,0,0,0a.08.08,0,0,1,0,0c0-.08,0-.19.06-.19s0,0,0,.14v.1Z"/><path d="M972.12,108.78l.1,0v.27a.92.92,0,0,1,0,.15,1.58,1.58,0,0,1-.09-.43Z"/><path d="M972,114.54l.24,0v.23A2.12,2.12,0,0,1,972,114.54Z"/><path d="M972.22,108.26l.09,0-.09.25Z"/><path d="M972.47,105.32a1,1,0,0,1-.12.16s0,0-.05,0h0l.1-.1Z"/><path d="M973,110.87l0,0h-.06l-.11,0v-.23a.86.86,0,0,0,.15.22.08.08,0,0,0,0,0S973,110.86,973,110.87Z"/><path d="M973.22,111.07h-.07C973.07,111,973,111,973.22,111.07Z"/><path d="M973.32,111.17h0Z"/><path d="M973.42,114.87c.16.25.13.22,0,0h0a.13.13,0,0,0,0,.06s0,0,0-.06v0a0,0,0,0,0,0,0l-.07-.11.06.07h0a.37.37,0,0,1,0-.13A.9.9,0,0,0,973.42,114.87Z"/><path d="M974.07,116.42l.06,0s0,0-.11.07-.1,0,0,0h0S974.06,116.41,974.07,116.42Z"/><path d="M974.12,105.57c-.1.1-.1.1-.2.1l.15-.1Z"/><path d="M974.92,105.17l0,.18A1.3,1.3,0,0,1,974.92,105.17Z"/><path d="M975,105.35v.05A.12.12,0,0,1,975,105.35Z"/><path d="M975.55,104l0,0h0S975.55,104,975.55,104Z"/><path d="M976.12,110.51s0,0,0,0v0c0-.11-.06-.13,0-.1a.05.05,0,0,1,0,0Z"/><path d="M976.52,117.37c.09.38,0,.31-.17,0a1,1,0,0,0,.09-.21.88.88,0,0,1,.08.45Z"/><path d="M976.77,109.17a.37.37,0,0,0,.06-.1"/><path d="M977.1,108.91a.27.27,0,0,0,.06-.1,1.1,1.1,0,0,1,0,.18,2.64,2.64,0,0,1,0,.28.57.57,0,0,0,0,.12c0-.14,0-.29,0-.44h0S977.11,108.92,977.1,108.91Z"/><path d="M977.11,109.48a1.23,1.23,0,0,1,0-.2s0,.1,0,.29c0,0,0,0,0,0v-.11s0,0,0,0a.49.49,0,0,1,0-.11Z"/><path d="M977.13,105.29c0-.24.07.21,0,0Z"/><path d="M977.2,113.94s0,0,0-.07a.51.51,0,0,0,0,.09Z"/><path d="M977.23,108.41c0-.08.07-.1,0,.06,0,0,0,0,0,0Z"/><path d="M977.32,103.47a.91.91,0,0,0,0,.17.17.17,0,0,1,0-.07Z"/><path d="M977.34,103.72a1.34,1.34,0,0,0,.25.49l-.18-.1A2.66,2.66,0,0,0,977.34,103.72Z"/><path d="M978,110.46l0,.13a.36.36,0,0,1,0,.11.49.49,0,0,0,0-.12A.5.5,0,0,0,978,110.46Z"/><path d="M1025.58,107c-.62-2.1-1.79-6-5-7a7.07,7.07,0,0,0-5.17.53,6.89,6.89,0,0,0-2,1.66,11.43,11.43,0,0,0-2.41,5.16,21.61,21.61,0,0,0-1,7.35c.18,3,.39,6.49,3,8.37a7.6,7.6,0,0,0,4.76,1.23,9.58,9.58,0,0,0,4.76-1.79C1027,119.18,1027,111.8,1025.58,107Z"/><path d="M1014.08,107.64c0,.06,0,0,0,0l0-.07,0,0s0,0,0,0a.16.16,0,0,1,0-.09,1.74,1.74,0,0,1,.15.25S1014.08,107.62,1014.08,107.64Z"/><path d="M1016.42,116.07a.31.31,0,0,1,0,.11.64.64,0,0,1-.09-.22S1016.39,116,1016.42,116.07Z"/><path d="M1016.89,116.72c.09.12.15.23,0,0A.09.09,0,0,1,1016.89,116.72Z"/><path d="M1017.65,110.9a.32.32,0,0,1,0,.08h0S1017.64,110.89,1017.65,110.9Z"/><path d="M1018,114.13s0,0,0-.06l0,.05a.08.08,0,0,0,0,0C1018,114.17,1018,114.2,1018,114.13Z"/><path d="M1018.72,116.87c-.1.1-.5.2,0,0Z"/><path d="M1018.52,115.37h-.11s-.09,0-.09-.09l.07,0,.06,0Z"/><path d="M1018.94,105.65h0a.28.28,0,0,1,.08-.1.28.28,0,0,0,0,.08Z"/><path d="M1019,112.27v-.09h0C1019.19,111.88,1019.11,112.18,1019,112.27Z"/><path d="M1019.32,105.31l-.09.08h-.05l0,0Z"/><path d="M1019.19,105.43s0,0,0,0C1019.64,105.29,1019.28,105.43,1019.19,105.43Z"/><path d="M1019.42,115.27l-.06.08a0,0,0,0,1,0,0h0l-.06,0-.06,0S1019.23,115.27,1019.42,115.27Z"/><path d="M1019.68,105.06c-.08,0-.12-.07,0,0Z"/><path d="M1020.11,105.56a.16.16,0,0,1-.09,0,0,0,0,0,1,0,0,.51.51,0,0,0-.09-.13C1019.65,105,1020,105.47,1020.11,105.56Z"/><path d="M993.64,62.35l-.12-.07a.75.75,0,0,1,.07-.12A1.8,1.8,0,0,1,993.64,62.35Z"/><path d="M996.47,63.46a5.81,5.81,0,0,0-.05.72l-.31-.2A4,4,0,0,0,996.47,63.46Z"/><path d="M1000.22,62.07l-.71.54L1000,62Z"/><path d="M1002.42,63.47v.1h0a.17.17,0,0,0-.19.07.15.15,0,0,1,0-.06Z"/><path d="M1002.52,63.27s-.06.3-.09.3a.36.36,0,0,1,0-.1Z"/><path d="M987.72,63.57v.1l-.13-.23c.08-.09.2-.27.13-.27C987.72,62.77,987.82,63,987.72,63.57Z"/><path d="M993.64,62.35l-.12-.07a.75.75,0,0,1,.07-.12A1.8,1.8,0,0,1,993.64,62.35Z"/><path id="Vector_19" data-name="Vector 19" d="M991,90c-4.3-4.1-10.2-5.1-15.9-5.3s-11.8-.4-16.2,3.6a3,3,0,1,0,4.2,4.2,8.32,8.32,0,0,1,5.1-1.8,53,53,0,0,1,6.9,0c4.1.2,8.6.7,11.6,3.6C989.62,96.87,993.82,92.67,991,90Z"/><path id="Vector_20" data-name="Vector 20" d="M1009.22,95.77a34.67,34.67,0,0,1,13.7-3.8,7.52,7.52,0,0,1,1.5,0h.3a2.35,2.35,0,0,1,.8.2c1.1.3,2.2.6,3.3,1a26.25,26.25,0,0,0,6.8,1.8c1.6.2,3-1.5,3-3a3.15,3.15,0,0,0-3-3c-.9-.1.3.1-.2,0a2.35,2.35,0,0,1-.8-.2,7.49,7.49,0,0,1-1.6-.5c-1.2-.4-2.3-.8-3.5-1.2a18.69,18.69,0,0,0-7.4-1,39.88,39.88,0,0,0-15.9,4.5C1002.82,92.47,1005.82,97.67,1009.22,95.77Z"/><path d="M922.41,264.54c-2.16,1.82-4.76,1.57-6.89-.17a6.94,6.94,0,0,1-2.7-3.6,21.38,21.38,0,0,1-.56-4C913.62,268,921.09,265.34,922.41,264.54Z"/><path d="M922.82,260.39h0a2.92,2.92,0,0,1-.66-.58,3.09,3.09,0,0,1,.47.36A2.09,2.09,0,0,1,922.82,260.39Z"/><path d="M923.48,262.26a2.79,2.79,0,0,1-.58,1.8A3.62,3.62,0,0,0,923.48,262.26Z"/><path d="M1068.57,239.5a69.61,69.61,0,0,1-1.27,9.94c-.44,2.06-.89,3.15-1.18,3.17a3.58,3.58,0,0,1,0-2.94c-.4.9-.1,0,0-.2a6.89,6.89,0,0,1,.3-.8,5.78,5.78,0,0,0,.5-1.4c0-.13.07-.26.11-.39a62.75,62.75,0,0,0,1.49-7C1068.54,239.74,1068.55,239.62,1068.57,239.5Z"/><path d="M1002.42,63.47v.1h0A.36.36,0,0,1,1002.42,63.47Z"/><path d="M1076.52,215.57c-.2,7-.6,14-1.5,21-.7,5.5-1.5,11-3.7,16.1-.6,1.5-2.8,1.8-4.1,1.1a2.77,2.77,0,0,1-1.1-1.16c-.55,0-4.47-18.75-6.5-21.44a24.65,24.65,0,0,0-2-2.3,11.67,11.67,0,0,1-1-1.26,10.64,10.64,0,0,1-2.15,3.16c-.19.19-2.93,2.92-3.9,2.3-2.09-.25-.06-12.74-4.6-29.7a119.16,119.16,0,0,1-3.3-16.3c-.27-2.19-.59-4.52-.66-5.94l-10.86-9.42,13.69-12,1,1.4c.18-4.19.58-8.41,1.08-12.57,1.1-10.2,2.6-20.6,1.3-30.8a40.75,40.75,0,0,0-3.6-12.8,47.92,47.92,0,0,0-7.1-10.6c-5.8-6.6-12.9-12-20.2-16.8a52.7,52.7,0,0,1-9.9-9c-1.5-1.6-2.9-3.3-4.5-4.7a4.21,4.21,0,0,0-.49-.3s.09-.3.09-.3l-.1.2-.2.1a.15.15,0,0,0,0,.06.17.17,0,0,1,.19-.07h0v1.3c.1,1.8-2,3.6-3.8,2.9l-3.3-1.2a3.17,3.17,0,0,1-1.88-1.47h0a12.49,12.49,0,0,1-3.21,4.47c-2.2,2.1-4.6,4-7,5.9a71.12,71.12,0,0,1-7.2,5,37,37,0,0,0-5.4,3.8,89,89,0,0,0-9.4,10c-2.6,3.2-4.9,5.8-6.6,9.7-3.4,7.5-4.3,16.6-4.7,25-.3,8.7-.3,17.5.1,26.2.06,1.2,2.27,1.7,2.35,2.9l12,7.76s-10.46,5-6.57,29.88c0,0,2.55,13.3.25,19.32a86.84,86.84,0,0,1-7.16,13.43s-6.72,11-5.24,13.47c0,0-.11,2-2.92,1.81a2,2,0,0,0-.12.34,2.74,2.74,0,0,0-.07.82.17.17,0,0,0,0,.07s0,.07,0,.1l0,.17s0,.12,0,.21l.06.31c.49,2.82.59,5.93-1.15,7.21a2.45,2.45,0,0,1-.76.41l-.27.07h0l-.31,0-.4,0h0c-2.41,0-5.58-2.11-9.18-1.56a4.85,4.85,0,0,0-.53.08q-.3.06-.6.15l-.45.15a5.49,5.49,0,0,0-.51.21l-.46.23,0,0c-.16.08-.31.17-.46.26l-.32.21a8.44,8.44,0,0,0-.7.52,11.09,11.09,0,0,0-1.34,1.22,12.76,12.76,0,0,0-1.06,1.19l-.42.53a.44.44,0,0,0-.08.11c-.13.17-.25.33-.35.48s-.34.47-.47.68-.35.54-.47.74l-.1.17,0,.07-.09.14,0,.08a.14.14,0,0,0,0,.06l-.2.33a3.59,3.59,0,0,1,.38.21,2.92,2.92,0,0,0,.66.58h0v0a3.1,3.1,0,0,1,.65,1.85,3.62,3.62,0,0,1-.58,1.8.75.75,0,0,1-.14.17.47.47,0,0,1-.14.14l-.18.15,0,0c-1.32.8-8.79,3.5-10.15-7.8v0a2.77,2.77,0,0,1,0-.42c0-.42-.07-.83-.11-1.23-.4-3.9-.6-7.7-.7-11.6-.2-8.7,0-17.5.5-26.2,1.1-19.7,3.2-39.3,5.5-58.8,2-17.7,4.3-35.4,5.8-53.1.3-3.8.3-7.6,1.1-11.3,1-4.5,2.8-8.8,4.3-13.2s2.7-9,4.7-13.3a51.4,51.4,0,0,1,7.8-11.8c7-8,16.2-12.7,26.1-16.1,12.1-4.1,24.9-5.7,37.4-2.5a3.05,3.05,0,0,1,1,.45c1.14-.12,2.28-.2,3.42-.25,17.5-.8,35.3,6.9,47,19.9,14.3,15.8,17.5,38.4,19.3,58.9,1.6,19,1.1,38.1,1.3,57.1C1076.72,187.37,1077,201.47,1076.52,215.57Z"/><path d="M987.72,63.57v.1l-.13-.23c.08-.09.2-.27.13-.27C987.72,62.77,987.82,63,987.72,63.57Z"/><polygon points="924.53 255.66 924.53 255.65 924.53 255.66 924.53 255.66"/><path d="M923.64,256.74c.27-.35.57-.72.89-1.08C924.24,256,923.94,256.35,923.64,256.74Z"/><path d="M930.52,252a9.72,9.72,0,0,0-5.52,3.19.81.81,0,0,1,.12-.14,14.16,14.16,0,0,1,1.34-1.22c.22-.18.46-.36.7-.52l.32-.21c.15-.09.3-.18.46-.26l0,0,.46-.23a4.55,4.55,0,0,1,.51-.21l.45-.15q.3-.09.6-.15A4.85,4.85,0,0,1,930.52,252Z"/><path d="M942.6,244.08c0,.28-.05.55-.07.82A2.74,2.74,0,0,1,942.6,244.08Z"/><path d="M1068.57,239.5a69.61,69.61,0,0,1-1.27,9.94c-.08-.87-.17-1.72-.27-2.56a62.75,62.75,0,0,0,1.49-7C1068.54,239.74,1068.55,239.62,1068.57,239.5Z"/><path id="Vector_25" data-name="Vector 25" d="M987,134.47a13.74,13.74,0,0,0,3.4,4.5,7.45,7.45,0,0,0,5.1,2.2c4.1-.2,7.8-3.2,10.5-6a3,3,0,1,0-4.2-4.2c-.7.7-1.4,1.3-2.1,1.9-.1.1-.3.3-.4.3h0a8.34,8.34,0,0,1-1.2.8l-.9.6c-.1.1-.2.1-.4.2-.5.2-.1,0,.2,0a3.18,3.18,0,0,0-.9.3,4.33,4.33,0,0,0-.5.1.37.37,0,0,0-.3.1c.5-.1.7-.1.4-.1h-.6c.9-.1.8.1.5.1-.1,0-.2-.1-.3-.1-.6-.1.4.3.2.1s-.3-.1-.4-.2-.5-.3-.1-.1c-.1-.1-.3-.2-.4-.3s-1.3-1.1-1.2-1.3c.2.3.3.4.2.2s-.1-.2-.2-.3a2.09,2.09,0,0,0-.4-.6,8.26,8.26,0,0,1-.7-1.3,3.06,3.06,0,0,0-4.1-1.1A3.17,3.17,0,0,0,987,134.47Z"/><path id="Vector_26" data-name="Vector 26" d="M1013.62,148.57c.1-.4-.1.1-.3.2a4.35,4.35,0,0,1-.7.4,18.19,18.19,0,0,1-1.9.8,29,29,0,0,1-4.8,1.4,49,49,0,0,1-9.5.6,23.51,23.51,0,0,1-9.8-1.6c.4.2-.5-.2-.5-.2-.3-.1-.6-.3-.9-.4l-2.1-1.2a9.38,9.38,0,0,1-1.2-.9c-.1-.1-.6-.7-.3-.2-.1-.2-.5-1.1-.3-.4a3.11,3.11,0,0,0-3.7-2.1,3.07,3.07,0,0,0-2.1,3.7c1.3,3.6,4.8,5.6,8.1,7.1a20.75,20.75,0,0,0,5.3,1.8,45.26,45.26,0,0,0,7.4.5,55.35,55.35,0,0,0,12.2-1c4.1-1,9.3-2.5,10.9-6.8a3,3,0,0,0-2.1-3.7A2.9,2.9,0,0,0,1013.62,148.57Z"/><path d="M1068.57,239.5a69.61,69.61,0,0,1-1.27,9.94c-.44,2.06-.89,3.15-1.18,3.17a3.58,3.58,0,0,1,0-2.94c-.4.9-.1,0,0-.2a6.89,6.89,0,0,1,.3-.8,5.78,5.78,0,0,0,.5-1.4c0-.13.07-.26.11-.39a62.75,62.75,0,0,0,1.49-7C1068.54,239.74,1068.55,239.62,1068.57,239.5Z"/><path d="M1054,179.27l-.09,2.52"/><path d="M922.15,259.81a3.59,3.59,0,0,0-.38-.21l.2-.33C921.94,259.35,921.93,259.53,922.15,259.81Z"/><path d="M922.62,264.37a.6.6,0,0,1-.12.11l-.06,0Z"/><path d="M923.48,262.26a3.1,3.1,0,0,0-.65-1.85A2,2,0,0,1,923.48,262.26Z"/><path d="M939.7,253.53c-3.85.17-4.46-2-9.18-1.56C934.12,251.42,937.29,253.51,939.7,253.53Z"/><path d="M942.54,245.07s0-.07,0-.1a.17.17,0,0,1,0-.07A1,1,0,0,0,942.54,245.07Z"/><path d="M940.76,253.38a2.45,2.45,0,0,0,.76-.41c1.74-1.28,1.64-4.39,1.15-7.21C943,247.52,943.8,252.54,940.76,253.38Z"/><path d="M950,175.13h0Z"/></g></svg>