<svg id="camera" xmlns="http://www.w3.org/2000/svg" viewBox="0 0 893.38 641.65"><defs><style>.cls-1,.cls-2{fill:#1a1a1a;}.cls-1,.cls-2,.cls-3,.cls-4{stroke:#000;stroke-miterlimit:10;}.cls-1{stroke-width:11px;}.cls-2,.cls-3,.cls-4{stroke-width:10px;}.cls-3{fill:#252627;}.cls-4{fill:#333;}</style></defs><path class="cls-1" d="M875.88,131.64H17.5a12,12,0,0,0-12,12V624.15a12,12,0,0,0,12,12H875.88a12,12,0,0,0,12-12V143.64A12,12,0,0,0,875.88,131.64ZM603,601.68a12,12,0,0,1-12,12H77.76a12,12,0,0,1-12-12V255a12,12,0,0,1,12-12H591a12,12,0,0,1,12,12Z"/><path class="cls-2" d="M415.54,196.32h-174A54.8,54.8,0,0,1,187,141.68c3.63-21.65,8.49-49.3,14.81-82,3-15.6,5.58-28,16.05-38.59,12.53-12.63,29.3-15.36,38.58-16h142c9.59.73,26.19,3.56,38.59,16.05C447.75,31.94,450.13,44.91,453,59.64c3.59,18.49,9.05,45.51,17.19,82A54.8,54.8,0,0,1,415.54,196.32Z"/><rect class="cls-2" x="34.35" y="88.23" width="143.23" height="39.06" rx="12"/><rect class="cls-3" x="91.8" y="78.28" width="30.64" height="9.96" rx="4.98"/><rect class="cls-4" x="265.67" y="67.55" width="121.79" height="91.15" rx="12"/></svg>