<?xml version="1.0" encoding="utf-8"?>
<!-- Generator: Adobe Illustrator 24.3.0, SVG Export Plug-In . SVG Version: 6.00 Build 0)  -->
<svg version="1.1" id="camera" xmlns="http://www.w3.org/2000/svg" xmlns:xlink="http://www.w3.org/1999/xlink" x="0px" y="0px"
	 viewBox="0 0 893.4 641.7" style="enable-background:new 0 0 893.4 641.7;" xml:space="preserve">
<style type="text/css">
	.st0{stroke:#000000;stroke-width:10;stroke-miterlimit:10;}
	.st1{fill:#252627;stroke:#000000;stroke-width:10;stroke-miterlimit:10;}
	.st2{stroke:#000000;stroke-width:11;stroke-miterlimit:10;}
</style>
<path class="st0" d="M46.3,88.2h119.2c6.6,0,12,5.4,12,12v15.1c0,6.6-5.4,12-12,12H46.3c-6.6,0-12-5.4-12-12v-15.1
	C34.3,93.6,39.7,88.2,46.3,88.2z"/>
<path class="st1" d="M96.8,78.3h20.7c2.8,0,5,2.2,5,5v0c0,2.8-2.2,5-5,5H96.8c-2.8,0-5-2.2-5-5v0C91.8,80.5,94,78.3,96.8,78.3z"/>
<path class="st0" d="M453,59.6c-2.9-14.7-5.2-27.7-16-38.5C424.6,8.6,408,5.8,398.4,5.1h-142c-9.3,0.6-26,3.4-38.6,16
	c-10.5,10.6-13,23-16,38.6c-6.3,32.7-11.2,60.3-14.8,82c0.1,30.1,24.4,54.5,54.5,54.6h174c30.2-0.1,54.6-24.5,54.6-54.7
	C462,105.1,456.6,78.1,453,59.6z M387.5,146.7c0,6.6-5.4,12-12,12h-97.8c-6.6,0-12-5.4-12-12V79.5c0-6.6,5.4-12,12-12h97.8
	c6.6,0,12,5.4,12,12V146.7z"/>
<path class="st2" d="M875.9,131.6H387.5v15.1c0,6.6-5.4,12-12,12h-97.8c-6.6,0-12-5.4-12-12v-15.1H17.5c-6.6,0-12,5.4-12,12v480.5
	c0,6.6,5.4,12,12,12h858.4c6.6,0,12-5.4,12-12V143.6C887.9,137,882.5,131.6,875.9,131.6z M603,601.7c0,6.6-5.4,12-12,12H77.8
	c-6.6,0-12-5.4-12-12V255c0-6.6,5.4-12,12-12H591c6.6,0,12,5.4,12,12V601.7z"/>
</svg>
